<svg id="Capa_1" data-name="Capa 1" xmlns="http://www.w3.org/2000/svg" viewBox="0 0 1017.7042 1032.57311"><path d="M1049.47657,533.35958c-1.06569,117.9816-38.05165,223.88511-109.61464,317.22535-63.15267,82.3707-145.24512,139.30764-243.43546,172.63758-62.81112,21.32074-127.64726,28.42376-193.69055,23.52785-101.655-7.5359-192.68728-43.23673-272.8305-105.93771Q113.699,849.8975,63.06106,710.848C37.31164,640.0073,27.64774,566.77889,33.36322,491.78436,41.80734,380.98637,81.18439,282.419,152.58129,196.877,204.76665,134.35261,267.68966,86.18456,342.97945,54.84983Q473.15641.67172,612.89232,21.3834,804.15708,49.77386,929.07534,197.627c54.175,63.94783,89.51414,137.13351,107.71683,218.617A528.88719,528.88719,0,0,1,1049.47657,533.35958ZM45.56163,536.40335a484.46256,484.46256,0,0,0,10.06081,97.28759C78.61986,743.531,131.72787,836.29931,215.52577,911.032c64.17807,57.23534,138.79276,94.54257,222.76651,112.775,48.07532,10.43806,96.68163,12.69384,145.78292,8.50438A464.04012,464.04012,0,0,0,728.45184,996.4632c79.57938-34.11387,146.763-84.61,199.951-153.32843a508.186,508.186,0,0,0,95.59427-204.07259c15.60578-70.79563,15.00563-141.81407.51015-212.61057-17.91591-87.502-56.49337-164.78487-116.53339-231.25728C860.11716,142.21044,804.72024,99.57656,738.90843,71.334,654.95909,35.30793,567.40981,23.36833,476.751,33.94039c-59.01478,6.88195-115.02209,23.88351-167.43733,51.823-87.29293,46.53076-154.50791,113.74215-201.82741,200.43583C64.99476,364.04759,45.62883,447.91941,45.56163,536.40335Z" transform="translate(-31.77468 -15.65717)" style="fill:#fff"/><path d="M834.34346,647.82026c4.36135-9.2204,10.76352-17.24938,11.01045-27.88793.15049-6.48867-.42547-13.03447.22154-19.46433,2.63194-26.15587,14.671-47.31338,36.1451-62.30129,12.42467-8.67183,27.61017-10.97579,42.29146-13.2343,16.12007-2.47992,32.42978-3.7269,49.65134-5.62044-.21036,1.20331-.01609,3.68861-1.05408,5.44606-6.74672,11.423-8.99516,24.10237-11.66724,36.86166-6.919,33.03791-24.80752,57.73172-57.62542,68.98126a91.83264,91.83264,0,0,1-30.34582,4.55422c-15.21291-.18056-26.41035,5.92076-35.89412,17.82283,4.73576,6.17726,7.57869,13.27566,5.16039,21.51318a16.30746,16.30746,0,0,1-1.46255,4.30345c-4.60164,7.09547-5.53362,13.94806,1.20177,20.39057,4.61465-5.26549,9.20922-11.04282,14.35912-16.27335,10.76079-10.92939,24.44443-15.67,39.17678-13.40119,19.36817,2.98279,38.43445,7.95443,57.58248,12.28347a5.8611,5.8611,0,0,1,3.79728,3.6163c.27064,1.35388-1.00876,3.78113-2.31172,4.56842-13.77974,8.32647-22.36188,21.59718-32.61979,33.351-16.55063,18.96418-36.62847,27.99123-62.32769,20.832-6.83161-1.90311-14.3096-1.70863-21.508-1.93976a9.20651,9.20651,0,0,0-6.56252,2.65712c-8.40094,10.02273-17.91884,18.60347-29.62188,24.05974,7.82086,2.64118,15.634,4.45346,22.70321,7.82556,19.42663,9.26684,30.73044,25.01906,34.71934,46.12426,1.62968,8.62284,3.541,17.19442,5.0336,25.8395.26875,1.55647-.39281,4.085-1.5143,4.83577-1.0638.71183-3.63469.19931-4.95857-.66736a59.34866,59.34866,0,0,0-34.70269-9.70664c-17.034.3477-31.83984-4.1805-40.35359-21.339-3.06447,3.86484-5.33228,7.689-8.50766,10.48106-3.80987,3.34979-8.48221,5.69837-12.60761,8.71739-2.36649,1.73185-5.32494,3.52322-6.408,5.99327-5.298,12.08131-14.42569,18.87166-27.14841,21.28074a8.64758,8.64758,0,0,0-1.64941.45273,3.37993,3.37993,0,0,0-.79127.59057c0,7.29687.76379,14.60073-.14833,21.68893-2.39522,18.61424-14.0433,31.24052-28.67669,41.60948-5.91579,4.19191-11.91025,8.27277-17.86562,12.409-7.3475,5.103-13.31455,11.35947-16.87673,19.73391-.5249,1.23374-1.85458,2.12509-2.81187,3.1749-.94751-1.25353-2.261-2.37124-2.78412-3.78211-3.89491-10.50344-6.8191-21.44955-11.58318-31.5313-11.31241-23.93974-8.53585-47.214,9.06809-66.97793.87254-.97967,1.75123-1.95382,1.96585-2.19319-4.47982-4.95766-8.65536-9.84406-13.17783-14.38492a6.01693,6.01693,0,0,0-4.93738-1.22744c-14.50486,3.88071-24.32318,12.36753-26.43693,28.00458-1.07282,7.93583-2.17613,15.87-3.072,23.82673-3.32378,29.52056-20.34953,48.53488-46.50372,60.34261a137.89355,137.89355,0,0,1-18.94145,6.44112c-9.98378,2.85139-19.57919,6.29733-27.809,12.96566-1.455,1.1789-4.07565.919-6.158,1.32359-.3456-1.94983-1.11166-3.93071-.97075-5.84474,1.2009-16.312,3.05989-32.59041,3.77151-48.9202,1.18251-27.135,22.31107-54.168,48.61118-60.74395,9.42852-2.35746,19.22055-3.3872,28.50375-6.16775,11.43416-3.4249,22.56656-7.9,33.71652-12.21278,5.38732-2.08382,10.51687-4.83409,16.58343-7.66548a20.49457,20.49457,0,0,0-3.61147-.29343c-31.20186,4.019-62.45056,7.72492-93.57053,12.30418-11.82465,1.74-23.51434,4.97374-34.96591,8.49976-10.07106,3.10105-13.78568,12.50048-17.91755,21.16744-3.92837,8.24018-7.26418,16.89868-12.21579,24.48906-13.24462,20.303-32.20278,32.16173-56.43162,34.87787-14.39523,1.61374-28.98121,1.84514-42.75433,7.19253-1.20839.46924-2.82709-.11839-4.25523-.21511.13343-1.62269-.30525-3.63071.48819-4.80884,8.62578-12.80846,11.74231-27.62416,15.72456-42.13936,5.1848-18.89865,16.74784-31.83991,34.97977-39.59126,18.08269-7.68793,36.49063-9.20929,55.51663-5.88831,10.72341,1.87179,21.13808,1.82207,31.46648-2.17634,4.02274-1.55737,8.43-2.12158,14.30317-3.53238-9.792-1.3329-18.02549-2.20312-26.16689-3.6077a316.70376,316.70376,0,0,0-80.99508-3.67518,82.44219,82.44219,0,0,0-43.30193,16.18258c-25.17966,18.70173-53.915,17.77059-78.33957-2.0199-9.16988-7.43016-17.51383-15.971-28.99048-20.11071-1.0917-.39379-2.50026-2.415-2.27669-3.30965.2748-1.09961,2.01536-2.36789,3.28885-2.58446,4.12323-.70135,8.476-.39652,12.46219-1.49164,9.53055-2.61838,19.16-5.18326,28.28518-8.90754,19.808-8.08422,38.7354-8.39815,56.363,4.94466,17.16651,12.9937,36.0958,15.24333,56.91792,12.41033,13.70372-1.86445,27.79947-.8561,41.72008-1.11051,3.00538-.0549,6.01265-.008,9.03505-.008-.059-.6163.032-1.18331-.14374-1.2838-9.542-5.45613-18.62613-12.18683-28.80914-15.90957-9.42929-3.44727-20.00088-3.94666-30.1319-5.26382-27.80724-3.61525-48.6723-16.02369-59.2527-43.50344-3.64294-9.4616-10.01448-17.86534-15.03689-26.81008-.84858-1.51129-2.09924-3.89316-1.50853-4.83961.74365-1.1915,3.23451-1.93081,4.89385-1.80892,10.83883.79652,21.65749,1.86983,32.4809,2.87285,3.61067.33463,7.21365.75268,10.82393,1.092,28.08864,2.63928,42.52878,20.37728,50.32058,45.47173,1.47084,4.7371,2.08876,9.98168,4.57374,14.10387,3.66427,6.07824,7.71,12.61236,13.23734,16.76273,23.79408,17.86661,50.68028,26.62574,80.74011,25.55264,17.08554-.60987,34.21066-.11021,52.31188-.11021-1.20772-1.40241-1.50842-2.09739-1.89186-2.14648-11.33709-1.45324-21.77654-5.546-31.74389-10.913-8.22381-4.42813-17.08445-3.06118-25.80422-3.30566-19.89738-.55785-36.3642-8.77159-46.60144-25.59789-5.77436-9.4909-8.0158-21.21423-11.3322-32.08942-2.32072-7.61016-3.78263-15.48341-5.59589-23.24658-.57725-2.47159-1.0509-4.96731-1.93588-9.187a58.824,58.824,0,0,1,5.74037,2.8823,112.69269,112.69269,0,0,0,38.63764,16.66658c7.47407,1.75934,14.7529,5.1113,21.5564,8.78739,11.89431,6.42678,17.86989,16.926,17.86779,30.50254-.00343,22.65167,5.54592,29.83636,30.22778,37.97563,18.29472,6.03306,36.79463,4.63569,55.4002.84246,7.53086-1.53534,4.41561-8.10772,6.79846-12.23005a74.72422,74.72422,0,0,1-5.89977,4.61528c-19.77441,12.60341-45.29775,6.67-57.9348-13.39532-.70981-1.12709-1.26989-2.657-2.31746-3.215-10.27561-5.47242-13.97729-15.341-17.64353-25.41285-2.20375-6.0539-3.99952-11.83913-1.35086-18.2771.76708-1.86444.30035-4.34883.011-6.49671a15.77892,15.77892,0,0,0-1.648-4.25135c-9.24992-20.02525,4.64289-28.5669,20.32833-30.47876,1.67095-.20357,3.36637-.20693,5.04207-.30273-2.50061-5.48459-4.95829-10.741-7.27484-16.0588a8.88971,8.88971,0,0,1-.75379-3.90673c.70106-12.20236,2.21116-24.295,1.64863-36.65721-.22287-4.8957,5.36473-10.04693,8.28-15.09725,2.26606-3.92561,5.33529-7.62715,6.578-11.85969,4.00638-13.64631,12.79769-21.5748,26.41168-25.03088a16.85869,16.85869,0,0,0,8.07521-5.50131c4.33778-5.21452,9.31229-8.747,16.03838-10.2328a8.8596,8.8596,0,0,0,5.31277-4.72437,28.305,28.305,0,0,0,2.13907-10.558q.12557-65.87154-.07917-131.74346c-.001-.684-.1565-1.36786-.36909-3.11136C608.86937,533.74875,573.7675,617.0843,538.66571,700.41985q-1.16736.081-2.33463.16189Q481.43027,578.90984,426.52941,457.238l-1.7048.47036c0,9.6359-.63442,19.32513.17018,28.89338.88677,10.54505-5.20843,16.79721-12.28834,24.21988-.1708-3.24954-.38105-5.45085-.38724-7.65278-.04846-17.18523.03909-34.37136-.1041-51.55564-.17161-20.595-7-29.28063-26.6063-35.15365-2.16448-.64837-3.64672-3.57421-5.44536-5.44379,2.00288-.997,4.00285-2.85129,6.00912-2.8581,19.66538-.0671,39.33181.26325,58.998.26637,5.19563.00083,7.8238,2.45375,9.82825,6.99756Q500.291,518.09367,545.8,620.67011c1.66878,3.76826,3.40728,7.50568,5.63264,12.39956,5.45214-13.0037,10.45036-24.74731,15.3111-36.54749q36.85011-89.45938,73.62709-178.94887c3.80756-9.2659,3.72084-9.294,13.67581-9.34859,17.75772-.09731,35.51558-.28466,53.27288-.23728,3.37336.009,8.50326-1.19587,9.00306,3.59962.49113,4.71234-4.67793,4.03-7.8,4.70216-11.46744,2.46869-16.84091,7.44334-18.12891,18.98887-.9689,8.68525-.81051,17.51708-.82624,26.28426-.06238,34.75322.00426,69.50666.02279,104.26.00133,2.45187.00021,4.90367.00021,7.88632,14.35248,0,28.018.208,41.6739-.06749,10.41686-.21014,18.99676,2.54432,25.29886,11.53214,2.05934,2.937,5.73536,4.87437,8.92662,6.85965,11.00646,6.847,19.20726,15.6474,20.86632,29.10895.3198,2.59467.046,5.26248.046,8.82389,6.70057-3.31581,12.79314-8.36368,21.21584-3.4877-.33777-19.50076-5.21683-35.7388-20.78436-47.01666a155.32828,155.32828,0,0,0-20.08448-12.05326c-19.21719-9.89287-31.75368-24.55228-34.95054-46.4676-1.04463-7.16092-2.05444-14.43961-4.24652-21.29126C724.963,491.5568,721.032,483.9,717.8605,475.983c-.79065-1.97375-.89855-4.221-1.32031-6.34258,2.07571.26385,4.26065.2,6.2081.84879,7.95828,2.65121,15.94146,5.27417,23.73435,8.36434,12.76818,5.06308,25.59048,10.1928,35.56593,20.1563,2.90755,2.90409,5.27326,6.35063,8.57089,10.38473-1.40682-4.79943-2.63216-8.64871-3.66323-12.54925-8.20157-31.02678-16.85861-61.94562-33.73009-89.62047-4.69052-7.69415-11.14023-14.49041-17.57429-20.90478-8.84151-8.81452-20.31176-11.63518-32.52838-11.7885a53.16078,53.16078,0,0,0-5.72537-.01822c-24.26842,2.33344-41.51682-9.75881-56.09665-27.28317-3.66126-4.40072-7.19253-8.91554-10.64693-13.4813-7.68227-10.15385-16.74589-18.25032-29.67245-21.06272-1.61829-.35211-2.98014-1.88245-4.4608-2.86684,1.55178-1.14692,2.94006-2.80755,4.68059-3.36175a145.14271,145.14271,0,0,1,57.106-6.595c20.135,1.78423,35.95293,12.13785,47.02729,29.02551,6.4672,9.86207,12.04648,20.30512,18.06808,30.46135,1.847,3.11507,3.49462,6.43716,5.821,9.16317,8.48851,9.94678,17.2252,19.68174,26.46665,30.17585-2.26907-6.326-4.15694-12.04578-6.35622-17.64324-10.76736-27.40464-22.71041-54.3434-39.9849-78.28726-11.94054-16.5505-26.46889-31.08476-47.71969-35.14544-9.46747-1.809-19.35762-1.95595-29.05076-1.90336-13.93547.07556-25.34326-5.148-34.63626-15.04312-9.42544-10.03608-18.38585-20.505-31.97725-25.2166-.57764-.20025-.916-1.091-2.26341-2.79579,5.21983-1.64523,9.69182-3.70433,14.36807-4.4102,15.748-2.37711,31.59389-3.05353,47.1289,1.28261,11.65312,3.25263,20.81849,10.62467,27.62493,20.35177,11.69864,16.71841,28.22493,27.94987,43.66764,40.45993q.70848-.52958,1.417-1.05915c-6.20384-8.99855-12.00829-18.30647-18.69207-26.93323-15.42075-19.90378-31.20339-39.52941-47.03856-59.10657a15.06124,15.06124,0,0,0-7.06469-4.39319c-6.44769-1.96792-11.617-5.15936-15.56991-10.86563a15.83455,15.83455,0,0,0-8.08941-5.40707c-21.55983-6.44481-34.75612-20.27832-39.364-42.47264-1.41374-6.80941-4.18233-13.32787-6.0046-20.06768-.59925-2.21641-1.13891-5.86137.00251-6.82093,1.94592-1.63582,5.24256-1.66474,8.36165-2.4693,1.60563-3.455,2.56586-9.19618,5.87642-11.38918,2.31515-1.53362,7.8438,1.78388,11.53339,2.82117,1.42933-1.27017,3.28413-3.979,5.79278-4.8928,3.53427-1.28739,6.14985.98031,8.63284,3.92721,4.12065,4.89057,8.36452,10.15057,13.66945,13.48333,17.57821,11.04326,26.69924,38.55269,19.73161,54.82674-.65623,1.5329-.24133,3.71132.16455,5.47788,1.35318,5.88987,2.51642,11.87744,4.55891,17.53648a41.33408,41.33408,0,0,0,6.428,11.20246c12.13173,15.45814,24.64213,30.61955,36.7384,46.10475,5.60914,7.18066,10.5833,14.85719,16.84582,23.72559-1.50486-10.74264-2.77538-19.80916-4.04485-28.8758-.52868-3.77578-1.24415-7.53719-1.53891-11.33122-.458-5.89455-.53491-11.70828-5.257-16.37867-1.41542-1.39989-2.06522-4.28955-1.91858-6.41764.42246-6.13025-2.20256-10.24681-6.65573-14.22584-7.02687-6.27874-10.3047-14.88219-10.39477-24.061-.091-9.28086,1.14373-18.59046,2.07983-27.859.46652-4.61917,2.22984-8.87585.00511-13.82629-1.94158-4.32075,1.643-6.89873,5.69257-7.14127,3.462-.20735,4.76143-1.89338,6.33664-4.60254a54.73133,54.73133,0,0,1,8.24437-10.86254c4.12162-4.17607,8.9476-2.9483,11.461,2.29324.62022,1.29344,1.49766,3.3499,2.44019,3.458,5.95146.68268,6.08894,5.06606,7.12911,9.48154a139.2774,139.2774,0,0,0,6.12572,20.18867c6.22524,15.42594,5.36865,30.4982-2.66446,44.68163-4.24869,7.50185-10.00777,14.00152-9.49853,23.4091a7.10244,7.10244,0,0,1-2.42138,5.06047c-5.66963,4.6187-4.825,10.65677-4.3382,16.76123,2.11718,26.5481,8.25878,51.87976,21.36738,75.37554a718.48067,718.48067,0,0,1,42.7323,89.87831,2.53034,2.53034,0,0,0,1.934,1.71626c-.62365-3.48235-1.46-6.94186-1.83647-10.45075a252.70375,252.70375,0,0,1,2.00018-70.73717c1.06583-6.10715,1.30164-11.58105-1.8692-17.59855-2.18634-4.14936-1.24156-9.92756-1.79409-14.9671-.29826-2.72052.0828-6.06838-1.35311-8.02423-11.9134-16.22727-11.54563-33.72934-6.171-51.91539,1.35-4.56786,3.11965-9.0871,3.78449-13.75845a30.38778,30.38778,0,0,0-.61484-11.71265c-2.24383-8.544.1786-11.94233,8.7527-11.84759a10.76635,10.76635,0,0,0,6.39566-2.54829c3.20182-2.67679,5.81215-6.04641,8.85488-8.93131,6.36188-6.032,10.38665-5.75115,16.14041,1.00969,1.60024,1.88035,3.01118,3.9218,4.69017,6.1273,2.48635-.39143,5.0606-.93167,7.66254-1.1769,4.73318-.44607,8.01618,1.245,9.64937,6.126.50959,1.523,2.50732,2.97232,4.15148,3.60749,4.03324,1.55818,5.66243,4.18951,5.13731,8.4089-1.5715,12.62843-2.62627,25.34208-4.74982,37.87556-2.59656,15.32508-7.64114,29.62458-21.56556,38.81072a6.59648,6.59648,0,0,1-1.46863.88408c-8.7025,2.83387-14.71046,7.715-16.10776,17.63922-.43106,3.06139-3.70106,6.19443-6.42118,8.34685a16.28771,16.28771,0,0,0-6.44972,10.80772c-7.07966,40.75869-5.405,80.95382,7.0333,120.55238.62735,1.99722,1.04016,4.0631,1.52345,6.10395.47442,2.00322.91135,4.01533,1.26059,5.56267,3.5735-18.02927,7.60121-36.29515,10.65414-54.72246a100.53037,100.53037,0,0,0,.6089-23.97117c-2.71153-34.99743,14.73709-60.03149,40.55317-80.04867,8.28024-6.42031,19.66608-8.81955,29.60314-13.12286,13.09819-5.67226,26.15343-11.444,39.27133-17.07a26.35484,26.35484,0,0,1,5.23948-1.09247c.31672,1.76462,1.31863,3.7425.84582,5.26134-5.77522,18.55193-11.02429,37.31674-17.87443,55.47373-10.57862,28.03976-29.50916,48.16942-58.75328,57.62284-5.39277,1.74325-10.34057,4.8479-15.52173,7.26393-18.17843,8.47668-22.03208,25.44183-25.65705,42.7279-6.38307,30.43883.39554,59.5449,8.4769,88.55352,3.58455,12.867,8.28891,25.52313,10.63826,38.60656,2.75447,15.33893,3.33812,31.05786,5.18074,46.57428.96205,8.10122,2.6053,16.12167,3.94093,24.17855l1.6587.10658c4.179-14.102,8.43606-28.18165,12.5137-42.31307a109.17423,109.17423,0,0,0,4.08036-37.89566c-.56407-8.50484-4.39918-14.30559-9.97881-20.30194-12.5467-13.48378-20.00169-29.30234-16.99806-48.35589a63.635,63.635,0,0,1,4.70528-15.83589c6.05523-13.57306,13.55385-26.614,12.72663-42.27825-.07356-1.39282,1.42353-2.86862,2.19117-4.30589,1.52.85764,3.474,1.36643,4.48982,2.62963,6.57685,8.17812,13.23594,16.31591,19.33076,24.85064,13.77826,19.29408,17.3312,40.01469,7.08882,62.05362a209.28125,209.28125,0,0,1-11.65906,21.63753c-5.85432,9.48887-6.0367,19.60083-4.93437,31.70406,5.02927-10.65655,9.64265-19.74713,13.665-29.09215,9.57049-22.23485,19.12153-44.4871,28.022-66.99272,1.57479-3.98194-.65834-9.311-.01588-13.86016.8266-5.85376-3.02146-8.02216-6.5916-10.85-11.087-8.78176-14.2208-28.86628-6.29594-40.82734.78959-1.19163,2.94468-2.52009,4.04694-2.22414a8.2346,8.2346,0,0,1,4.56331,3.55092c1.68,2.93419,2.68292,6.25544,3.99288,9.40509.03826.09189.35665.06735,1.05093.17738-.471-2.32711-.85938-4.50195-1.35534-6.65206-2.25375-9.77035.91422-18.18287,6.98917-25.53554a12.669,12.669,0,0,1,13.30406-4.63951c2.13823.47,4.74688-1.36087,7.17505-2.01759,5.383-1.45605,10.73162-3.29245,16.21761-3.9604,1.63549-.19917,5.282,3.016,5.234,4.58153-.13671,4.4481,2.48985,4.24456,5.32879,4.83251a126.11464,126.11464,0,0,1,14.95731,3.73987,20.91047,20.91047,0,0,1,7.66149,4.76465c2.05529,2.01511,3.26252,4.89521,4.84213,7.39558-2.59082,1.14341-5.08109,2.81607-7.79135,3.33147a25.73609,25.73609,0,0,0-18.44061,13.24252c-3.706,6.64951-6.39992,13.85854-10.02084,20.5612-5.24095,9.70136-12.10641,17.18226-22.792,22.171-6.97861,3.258-13.48644,10.479-17.03428,17.52215-7.61163,15.11-13.15329,31.26119-19.589,46.967-.91226,2.22648-2.08543,4.346-3.55294,7.3703,11.81375-7.83255,18.6662-18.8097,25.64586-29.55378,7.98045-12.28473,16.88735-23.29053,32.08572-26.66686a164.517,164.517,0,0,1,20.85848-3.56465c8.73222-.78345,17.54128-.8603,26.318-.88027,1.93452-.00437,3.87246,1.511,5.80887,2.32652-1.22828,1.53857-2.13774,3.748-3.73623,4.5074-10.84177,5.15109-17.44807,14.63311-24.513,23.59145-9.02229,11.4401-21.13849,17.23124-35.18516,17.706-23.24112.78544-41.32262,10.41666-53.63547,29.78885a164.90912,164.90912,0,0,0-15.4546,31.19427c-8.374,22.71649-15.54732,45.87349-23.41036,68.78209-1.70381,4.964-.72728,8.09709,3.77155,11.0096C826.49392,640.25325,829.89155,643.938,834.34346,647.82026ZM660.71215,929.16912q-2.19855,8.08128-4.39709,16.16265.76743.19815,1.53479.39623c1.74046-5.15018,3.57686-10.27232,5.10193-15.48551.19392-.66267-1.23954-1.80143-1.919-2.71963q2.61552-3.10739,5.231-6.21482l-1.59318-1.3087c8.42193-13.5742,12.12725-29.43951,21.07849-42.81056-12.34844,6.7179-24.52094,13.4021-33.524,24.397,4.40513-8.75319,12.46062-13.5963,20.1868-18.76543,5.21144-3.48672,10.587-6.732,15.73369-10.30889,1.45171-1.00891,2.35543-2.80629,3.51049-4.242q-.44885-.4883-.89771-.97667-4.00068,1.46479-8.00136,2.92944-.19678-.44907-.3935-.89813,4.6586-2.759,9.31719-5.51809-.53949-.96495-1.07905-1.92983c-9.64754,5.03968-19.295,10.07937-28.23892,14.75143,3.2365-2.57446,7.23456-5.75467,11.37045-9.04453-11.37905-4.09673-12.26424-3.56175-19.22523,5.658-9.23348,12.22963-13.05965,25.48957-9.05579,40.57387l2.223-2.05228c-3.61428,8.58564-.12008,15.62558,4.54086,22.47349,1.9069-2.39418,3.62616-4.55276,5.34557-6.71141q-1.91175,5.79642-3.82351,11.5927.66358.14412,1.32716.28819Q657.8887,934.28738,660.71215,929.16912Zm-33.509-621.46686q15.39789,5.92177,30.79576,11.84361.29015-.50424.58023-1.00845l-10.86779-7.938c7.77506,5.00745,15.55012,10.01487,24.22331,15.60068-4.13407-6.24733-7.7696-11.74133-11.40513-17.23533,6.43741,7.89926,12.87489,15.79848,20.06308,24.619-1.03694-3.25808-1.74878-5.4947-2.46061-7.73132q.407-.12195.81393-.244,3.20136,5.57237,6.40273,11.14468l1.14715-.66841q-1.73615-4.35271-3.47238-8.70539c2.74251,3.18311,4.39093,6.98211,6.77567,10.24246,2.42432,3.31444,5.57431,6.098,8.40654,9.114q.7027-.5644,1.40556-1.12884-7.73493-13.42606-15.46977-26.85214l1.08631-.68708q9.67038,15.55161,19.3409,31.10321l.79946-.34717q-2.929-8.0802-5.858-16.16038c7.15665,8.84022,6.20418,22.558,19.73769,28.76893-3.90029-8.06531-6.66742-15.2263-10.66191-21.62053-3.60161-5.76537-8.44025-10.78351-12.92251-15.96765-8.84977-10.23542-20.47736-15.58736-33.43239-18.35909-1.48751-.31826-3.20713.44829-4.81912.7119-4.45073-.57424-8.89194-1.28782-13.36113-1.58961-.77183-.0521-1.66164,1.6429-2.497,2.53089-4.79213-1.165-9.63119-3.22549-14.13555.75414H616.88884q.02654.357.05294.714c4.32156,1.12587,8.64319,2.25173,14.31142,3.72844C629.29994,310.10071,628.2516,308.90148,627.20318,307.70226ZM847.93011,815.73048q-8.20412-2.67489-16.40832-5.34977-.48116,1.08045-.96218,2.16089c3.51839,2.35453,7.1056,4.61366,10.53693,7.08889,3.87554,2.79566,7.61107,5.78537,11.39962,8.68739q-5.45571-3.07182-10.91135-6.1437-.51673.75033-1.03338,1.50073,7.36452,6.30959,14.72912,12.61922.37207-.25164.74421-.50322-1.85846-3.82866-3.71693-7.65737,1.29381.50938,2.58768,1.01876.58952-.52679,1.179-1.05345-4.16925-6.27579-8.34843-12.55726c1.34262.52918,2.68524,1.05842,4.79962,1.89193-5.99132-7.88436-23.45505-15.10186-33.62058-13.62315,4.54835,1.62108,7.91045,2.64558,11.13115,4.00484C836.04427,810.35085,841.97006,813.08119,847.93011,815.73048ZM840.84,430.69872c.9473,1.81043,2.68747,3.6177,2.69468,5.43187.0223,5.649-.49512,11.3116-1.02646,16.94788-.46763,4.96-1.23541,9.89171-1.8706,14.83591l1.513.1365c8.39-15.69449,7.51743-32.55363-2.74915-41.94774.69435,2.04794,1.15849,3.41685,1.61276,4.775-2.44054-4.47188-4.88108-8.94376-7.87744-14.43412,2.44628,12.72132,4.64346,24.14688,6.93554,36.06626C843.75422,445.035,842.6956,437.88209,840.84,430.69872ZM638.837,255.70193c.90267-.78617,1.80542-1.57231,2.98691-2.60121-4.51275-3.01129-8.22248-4.99179-14.147-4.13121-8.18045,1.18824-16.7277-.14784-25.52558-.41515l19.51391,8.29179-9.8209-2.38033c9.43747,6.322,14.28428,7.02508,41.73277,6.65846C648.437,258.53244,645.13314,253.27922,638.837,255.70193Zm-104.146,677.26q6.49971-6.96286,12.99947-13.92582-.62508-.71035-1.25009-1.4208-10.90891,6.79736-21.81795,13.5947c2.64527-2.30788,4.98535-5.1669,7.98793-6.82952,13.90484-7.69925,25.3025-18.20213,35.71845-31.15038-9.86489,3.98218-19.09691,7.709-28.32892,11.43584a69.29982,69.29982,0,0,1,7.03609-4.44856c9.26118-4.45779,18.70837-8.53864,27.87682-13.17434,3.44777-1.74318,6.32587-4.61317,9.46363-6.96951l-.88016-1.32577-40.95381,11.46486c8.67347-5.85544,18.95418-6.5051,28.52271-9.44439,8.372-2.57181,16.10761-7.21512,24.12436-10.94331q-.29707-.64617-.59421-1.29234-10.94047,2.64457-21.881,5.28927-.12609-.4135-.252-.82687,16.39787-5.08448,32.79573-10.16888-.40783-1.4007-.81561-2.80146c-16.41776,3.862-33.12029,6.81224-49.178,11.82724-18.24749,5.69893-35.00735,28.3869-36.76564,47.26954,1.73178-1.46255,3.27835-2.76866,4.82493-4.0747-4.21488,6.49244-7.72447,13.18776-6.48658,21.80689,2.9521-2.16864,5.46124-4.0119,7.96388-5.84816-1.3723,1.775-2.67111,3.61308-4.13138,5.31242-3.621,4.21428-5.27459,8.85578-3.645,14.51255,3.79012-4.35275,7.41012-8.51012,11.03017-12.66748-5.42285,7.61919-10.91412,15.20536-12.61447,24.94515a83.717,83.717,0,0,0,23.26752-32.40041C536.562,931.9119,535.62648,932.43688,534.691,932.96192ZM950.822,529.17351q-3.09594,5.1996-6.19195,10.39921.44529.35561.89058.71127,6.57444-6.246,13.149-12.49187-.56214-.78951-1.12422-1.579-3.43632,1.56427-6.87259,3.12863c-3.90281-3.44486-7.06728-.45392-10.38617,1.19146-4.10421-3.26189-7.96212-1.87941-11.7606.62365-1.89381-.55784-3.98267-1.93151-5.64788-1.53335-7.53323,1.8014-14.86381,4.48607-22.42516,6.12464-8.63816,1.87189-16.33091,5.385-22.59524,11.50811-18.62249,18.20262-28.774,40.05337-27.70345,66.4868.08035,1.98291.98338,3.93253,1.504,5.8976q.84493-.03723,1.69-.0744,6.323-25.61814,12.64608-51.23634l1.05764.28511q-5.13609,22.98878-10.27211,45.97756,1.06324.30147,2.12655.60281c10.62226-19.25559,12.89664-42.39349,27.18827-59.96331-8.41619,15.707-15.975,31.69942-18.62172,50.34737,8.60333-7.11456,12.49537-15.65775,15.49361-25.10445,4.00023-12.60412,11.24682-23.47854,20.59023-32.83916-4.28792,6.86014-9.23991,13.34413-13.0537,20.4398-3.84505,7.15372-6.56007,14.91486-10.12644,23.24182,12.37523-5.23458,17.94905-13.88588,22.20732-24.74,3.36315-8.57263,9.962-15.87579,15.12375-23.74281-7.226,10.7882-14.473,21.56647-16.03376,35.10669q2.85069-5.3717,5.70145-10.74338.29832.18074.59672.36155-.7626,2.73351-1.52514,5.4669.76953.42578,1.53913.85148Q915.73,563.915,923.47389,553.952q-1.15963,2.95791-2.31928,5.91566c2.444-1.53193,3.9384-3.63819,5.75474-5.41557,4.8101-4.70717,9.93119-9.1067,14.59583-13.94911C944.88581,536.99371,947.73489,532.97244,950.822,529.17351ZM919.77,366.53879q-.64521,4.85685-1.29044,9.71374c11.52262-8.66008,23.34168-7.195,35.59012-4.12467a212.37256,212.37256,0,0,0-28.45032-7.77621c-1.78067-.36221-4.02253,1.5429-6.05153,2.40159a59.07314,59.07314,0,0,0,4.5736-4.6829c.73106-.91774,1.44219-2.42351,1.18-3.40028a4.1919,4.1919,0,0,0-2.706-2.38687c-5.32851-1.26866-17.07421,7.57523-17.47149,12.988q-.60421,8.23151-1.1531,16.46689a6.55476,6.55476,0,0,0,.39015,1.60095c.838-1.727,1.493-3.07664,2.20962-4.55353.58736,1.19531.9845,2.0034,2.10138,4.27628,2.16109-7.406,3.88476-13.3128,5.60844-19.21964l.46742.08476q-.3448,5.29281-.68953,10.58554l.85016.078Q917.34457,372.57115,919.77,366.53879ZM399.82048,920.7197,387.752,934.41888q.64529.67491,1.29059,1.34989L413.76819,915.396q-.42153-.62047-.84306-1.24108l-13.30256,6.76777c4.14264-2.79307,8.2985-5.5667,12.42457-8.3841,5.126-3.50007,10.22742-7.0363,15.33945-10.557q-.47345-.72065-.94694-1.44122c-2.02151.36756-4.18373.39491-6.03985,1.16241-7.50366,3.10279-14.91305,6.43356-22.35722,9.68027.7419-.82589,1.32457-2.01039,2.2506-2.42145,8.00668-3.554,16.21839-6.675,24.08482-10.50819,7.81345-3.80736,15.29815-8.28934,22.927-12.47558-14.3445-4.76654-27.4052-2.39271-40.20575,2.65278,2.376-1.409,4.60719-3.20391,7.1534-4.15925,10.42935-3.91295,21.23615-4.05435,32.173-2.85314,2.23368.24532,4.56055-.35791,7.744-.65344-1.51185-1.776-2.1399-2.51376-2.16218-2.53991q9.09282-4.65912,18.21235-9.332c-1.37416-1.59458-2.25225-1.87969-3.12681-1.8692-13.84044.16637-27.68042.37071-38.9323.52973a87.80105,87.80105,0,0,1,39.49325-2.01179c7.24785,1.35374,12.2496-1.49381,19.16076-3.07041-26.21164-10.94681-76.968-1.509-87.88659,28.75935,1.164-.13965,2.25365-.27042,3.34325-.4012-2.35624,2.61153-4.71251,5.223-7.85632,8.70746,2.1683-.50218,3.00258-.6954,2.6588-.61582-1.68161,4.17813-3.64893,8.92817-5.42354,13.749-.13515.36707,1.09464,1.2366,1.69,1.87255-2.34854,5.46977-4.69709,10.93954-7.23193,16.84316C391.1425,927.59517,395.48326,924.15425,399.82048,920.7197ZM384.20214,793.9833c9.38985,2.07249,18.67942,1.411,28.47253-.7568-4.75821-7.07518-10.49068-10.79023-18.84232-10.11455a49.45081,49.45081,0,0,1-13.06371-.30007c-5.10549-.97044-10.00028-3.0493-14.98626-4.64842l-1.03282,1.482q9.61469,7.13311,19.22939,14.26617c-2.7638-.53924-5.5276-1.07848-9.05617-1.767,14.81937,12.41838,31.64477,9.55307,48.99563,9.6514-4.53591-5.17263-9.162-6.921-14.86067-6.35482a116.996,116.996,0,0,1-15.36638.90358C390.50563,796.239,387.36371,794.81549,384.20214,793.9833Zm317.0394-436.81058c-3.06923.80288-6.097,2.02875-9.21495,2.33369-11.951,1.16876-23.84156,1.195-35.24914-3.59522,14.93395,8.90082,30.94947,12.96017,48.52495,10.29728q-.09578.87936-.19148,1.75871H678.69365q.00639.72.01273,1.43993h40.09141c-4.48066-3.97544-9.06075-8.19777-13.869-12.14208-.761-.62431-2.55068.00528-3.8647.05507.94995-.51574,1.9-1.03149,2.8265-1.53454-5.9023-6.19506-12.16152-9.97679-21.21178-7.77975a48.63652,48.63652,0,0,1-31.26815-2.746c-1.01331-.43609-2.28354-.27514-4.26512-.47511,8.49752,7.26949,16.67056,13.34,27.36247,13.48987C683.41459,358.39935,692.33436,357.57528,701.24154,357.17272Zm107.68928,7.22407c3.90281-2.40732,7.61576-5.24273,11.76935-7.08466,3.23741-1.43563,7.0677-1.47,10.55686-2.414,12.93951-3.50071,24.71256-9.16321,34.28409-18.203-12.47467,2.78114-24.93731,5.93488-37.55227,8.26346-11.93067,2.20221-20.67519,10.28976-23.25686,23.05332.77268-.4676,1.38206-.83641,1.99151-1.2052-1.06526,2.23365-2.13046,4.4673-2.94383,6.17272,13.942-6.35632,27.99241-12.76216,42.04292-19.168a102.31132,102.31132,0,0,0-18.41018,3.74021C821.147,359.49546,815.08284,362.08772,808.93082,364.39679Zm15.97587,467.282c-1.34528-1.52444-3.12839-2.84468-3.95246-4.61213-2.32816-4.9936-4.38282-10.1256-6.32412-15.28619-2.73894-7.28128-7.62163-12.33915-15.38348-15.496,2.722,9.94119,5.41235,19.38531,7.88339,28.88642,3.19916,12.30089,10.35525,13.96568,22.66551,13.0214-1.56038-2.05984-3.3251-4.38933-5.09388-6.71917,3.65406,2.73593,7.30806,5.47187,11.37556,8.51746-4.4666-9.28566-8.14214-17.97976-12.78405-26.12294-2.24467-3.93756-6.30475-6.84035-9.54279-10.21168q-.42264.46867-.84527.93729Q818.90587,818.136,824.90669,831.67879ZM480.99322,751.61548q-4.12871-2.39061-8.25748-4.78122l-1.18282,1.50821q5.81609,6.68773,11.63217,13.3756.52916-.47015,1.05834-.94023-1.62664-4.125-3.25332-8.24989,12.05843,14.19124,24.11688,28.38242.56029-.33451,1.12068-.66911-2.69229-7.21179-5.38455-14.42352c7.04207,10.06161,9.1839,23.18168,20.84579,30.56589-.48756-2.48627-.63239-4.79919-1.4037-6.87979-3.00964-8.11871-6.21765-16.16377-9.35195-24.23625,1.4064,1.75808,3.33175,3.30916,4.13,5.3099,3.59207,9.00327,7.227,18.021,10.11154,27.26289,1.64773,5.27934,4.275,9.03942,10.35732,11.85529-2.83737-13.09182-5.48165-25.29285-8.126-37.49395a16.72562,16.72562,0,0,1,2.85352,6.154c2.07193,8.69431,4.182,17.385,5.96764,26.14048,1.69609,8.31606,2.71761,9.79644,8.56431,10.933-.6582-4.8566-1.8478-9.89482-1.91549-14.94808-.12378-9.23928-2.09341-17.75674-7.67835-25.22382-6.11027-8.16947-16.0822-9.977-24.3695-14.55576-.39931-.22071-1.07933.06664-1.74843.12853.72134,1.62528,1.38321,3.11657,2.03357,4.59849-2.87321-2.315-5.4155-5.43956-8.68816-6.77756C495.48293,755.81256,488.16009,753.90483,480.99322,751.61548Zm273.55757-220.3179q11.264,4.98876,22.528,9.97748c-4.39793-8.18164-7.55765-17.0798-18.30941-19.50094-6.5635-1.4779-12.7579-4.6002-19.11111-7.00242-1.262-.47721-2.49229-1.03827-3.73721-1.56066q-.49439.71781-.98869,1.43559,8.76365,7.48862,17.52736,14.97717-7.3662-4.03744-14.73241-8.07493c3.64581,4.61692,7.65625,8.954,12.48712,11.98225,4.95178,3.104,10.70631,4.92731,16.10957,7.31114q-.37626.79754-.75246,1.59492-11.4678-5.53605-22.93566-11.07222c5.31109,6.08131,10.8282,12.20742,17.64037,16.0189,9.8577,5.51544,19.6,10.91632,27.674,18.93194,1.11653,1.10842,2.37529,2.07354,4.72709,4.107-2.35984-5.21458-4.17142-8.93319-5.74362-12.75048-3.38741-8.22486-8.35717-14.63786-17.08742-18.0336C764.47841,537.55089,759.63159,534.12351,754.55079,531.29758ZM325.38428,846.3998a92.15112,92.15112,0,0,1-9.33135,3.37322c-4.53866,1.13639-9.19292,1.81116-13.79781,2.68321q-.04012,1.03239-.08028,2.06486c5.87313,1.153,11.74623,2.30607,16.81952,3.302-2.06879.45652-5.16368,1.1394-8.25861,1.82228q.042.81779.08389,1.63563h20.11175c-2.23983.85107-4.47971,1.70206-6.35534,2.41466,9.2717,5.38858,18.20122.75869,27.40009-1.21806l-8.4828,3.95169q.22678.67628.45354,1.35241c5.19413-1.53234,10.60292-2.57551,15.52257-4.73367,5.00556-2.19578,9.64384-5.31683,14.23114-8.35284,4.32212-2.86069,8.36822-6.13831,13.65917-10.06657-10.45809.20049-19.91913-2.0197-28.39973,3.97973l2.26959-3.36266q-.301-.85911-.60214-1.71815c-11.45231,2.514-22.90461,5.028-33.1035,7.26687,2.36239-1.11485,5.898-2.78327,9.43349-4.4517q-.139-.761-.27816-1.522l-8.74885,1.31394c-1.58868-1.07142-3.09455-2.91027-4.77923-3.09209-12.8814-1.39038-25.79765-2.45789-39.04989-3.65721,16.56672,11.46528,19.76916,12.25061,34.65409,8.506C320.95118,847.33912,323.174,846.89436,325.38428,846.3998ZM875.9612,606.57925l-.0093-.16238c-4.10939,4.45464-8.21885,8.90921-13.45308,14.5831,4.09407-.78008,6.26768-1.19422,8.42563-1.59786-6.74539,3.23147-13.76631,6.07446-19.32041,14.25967,26.90162-5.60914,54.59319-2.57369,75.539-23.14252a126.53459,126.53459,0,0,1-56.37519,9.01019c5.80432-.70372,11.59878-1.89752,17.415-2.0157,15.15249-.30791,28.75858-6.17972,44.00247-11.11695l-6.80084-1.21842c10.87736-.72876,16.4051-8.02723,20.97569-16.48679.13182-.244-.53176-.91778-.82449-1.39114,1.181-1.48969,2.362-2.97937,2.93873-3.70687-8.50976,2.29768-17.1582,5.07878-26.00475,6.895-8.73536,1.79332-17.67681,2.57187-26.51714,3.8684C887.57061,595.58629,880.68836,599.33791,875.9612,606.57925ZM761.93052,492.85578c-4.994-4.50013-10.17979-8.54833-17.49953-8.06451-.57015.0377-1.16478-.77554-1.796-1.10005-4.0054-2.05938-8.02437-4.09257-12.76321-6.50284.72505,1.70071,1.06226,2.49177,1.73885,4.07876-2.49824-1.70647-4.42324-3.02139-6.34818-4.33631,17.40261,15.99355,35.67531,31.00541,48.71754,51.16039q.92384-.47924,1.84773-.95849-4.5774-13.629-9.15467-27.258c1.1352,1.47852,2.7609,2.79264,3.321,4.46387,2.47411,7.38187,4.37884,14.96,6.98658,22.29023,3.269,9.18865,7.02358,18.20451,10.56862,27.29491q1.13888-.35611,2.27767-.71232c-2.87153-12.92636-5.16158-26.01985-8.81382-38.72173-2.54083-8.83662-5.76334-18.01958-15.60369-21.98477C764.45233,492.11923,763.09964,492.71539,761.93052,492.85578Zm-85.98644,441.49a50.85022,50.85022,0,0,0,5.44123-37.5259c-9.633,17.82821-15.40809,36.94092-19.53468,56.71085q3.385-5.96991,6.77-11.93983.53256.26527,1.06505.53064-.62246,1.81566-1.24506,3.6314.65257.30075,1.30514.60135,3.19191-6.11059,6.38384-12.22124c-.13413,1.43569-.26819,2.87132-.3549,3.8,27.16274-14.92438,24.715-38.43942,17.925-64.46382-4.7687,8.31507-10.47295,14.78766-8.9425,24.37248.74268,4.65177.312,9.53062.07742,14.29009A35.71805,35.71805,0,0,1,675.94408,934.34573ZM443.02836,896.85717c-1.16422-.1956-3.10566-.91149-3.37553-.5084-3.74924,5.60033-7.42928,11.2624-10.77712,17.10931-1.63559,2.85643-2.54844,6.12685-3.7884,9.20985q-.46008-.21094-.92012-.422c1.59622-4.89276,3.19241-9.78559,4.53072-13.88785l-36.17573,30.16113.6598.92716c2.54908-1.4764,5.09815-2.95279,7.9437-4.60094l-1.06726,3.62581c4.14757-2.191,7.69758-4.06631,11.24755-5.94159l1.32933,1.57052q-2.24968.984-4.4994,1.96815.47189.78085.94369,1.56178,8.41927-2.2771,16.83851-4.55429c-.19291.30959-.517.61-.53931.93142a1.51585,1.51585,0,0,0,.45071.84764c3.33346-1.27821,7.37291-1.8078,9.84541-4.05729,13.65218-12.42145,17.54188-29.35251,21.07545-46.35189q-.87426-.65489-1.74846-1.30968Q449.01509,889.99656,443.02836,896.85717ZM328.53407,821.18011c-4.659.73246-9.47531.94771-13.9433,2.30753-8.65138,2.63292-17.09271,5.95089-25.65461,8.88718a44.25825,44.25825,0,0,1-5.533,1.16436q.081.47183.1621.94373l55.70087,6.73755.58449-1.60283-31.63-12.10487c-.491.69994-.29942.16916-.08.15734a9.06407,9.06407,0,0,1,3.338.08658c9.45716,3.30231,18.881,6.70056,28.30826,10.08819,2.65471.95386,5.25193,2.67117,7.94013,2.81278,7.42628.39141,14.88669.13546,22.33356.13546-15.71338-2.50768-27.79332-12.977-41.652-19.75126,3.02744,1.01534,6.29943,1.5929,9.03939,3.123,10.94194,6.11062,21.5914,12.86475,34.43468,14.28989,1.81955.20189,3.74158-.51987,7.20386-1.06338-7.25837-4.65234-12.55562-8.9146-18.548-11.65892a100.44435,100.44435,0,0,0-21.39269-6.93483C335.91014,818.13,332.08928,820.2989,328.53407,821.18011ZM537.35578,957.4944q-1.30969,2.64594-2.61942,5.29186.59691.75411,1.19376,1.50829c5.54509-3.18364,11.09017-6.3672,16.69253-9.5837-.71862,1.23289-1.39829,2.399-2.07795,3.56511,18.365-14.34345,15.05962-34.48192,14.54695-54.08745a93.04073,93.04073,0,0,0-11.45038,12.7165c-1.54031,2.12207-1.9406,5.07717-2.83265,7.66317q-4.41723,12.80523-8.81585,25.61691,4.05942-12.87688,8.1187-25.75391-.48745-.14339-.975-.28672-16.47859,24.07238-32.95717,48.1448C522.112,965.7287,532.17053,965.086,537.35578,957.4944ZM871.30362,327.05428l.05538.09784c-2.61243-.21913-5.374-1.09719-7.81177-.54494-11.39654,2.58166-22.7037,5.55777-34.04282,8.3929q-.21892-.93374-.43777-1.86749c5.37116-1.15859,10.71162-2.49306,16.11985-3.43975a63.55109,63.55109,0,0,0,31.27108-14.74329c2.53013-2.19652,4.1803-5.40662,6.23412-8.15182-3.12859.32274-5.29095,1.5128-7.60386,2.18547-10.94108,3.18192-21.95019,6.13188-32.87343,9.37216-3.00475.89134-5.79677,2.49973-8.68641,3.7791q.39609.66573.79212,1.33142l9.212-1.92671c-2.89978,1.76157-6.05474,2.45886-9.08915,3.50573-1.89787.65474-4.06931,1.435-5.32333,2.85877-3.31839,3.76767-6.19432,7.924-9.26635,11.91008-1.53394,1.99053-3.11174,3.94729-5.60949,7.10893,5.31655-1.40335,8.91635-2.43981,12.5581-3.29825,9.95707-2.34712,20.13316-4.00107,29.82169-7.15932,5.558-1.81182,10.33616-6.01645,15.44858-9.171.00881-.00542-.23288-.41665-.35756-.6383ZM815.26984,486.07245c1.90067,2.80975,3.78791,5.6288,5.70488,8.42739q6.33066,9.24219,12.6853,18.46787,1.1353-.57284,2.27054-1.14576c.81547-9.77332-7.01463-16.71892-9.83469-25.3012-2.90048-8.82683-8.88963-16.61273-9.46957-26.10751q9.42282,21.185,18.93278,42.56608l1.89452-.41938c0-6.76217.10217-13.52707-.07623-20.28452a8.14762,8.14762,0,0,0-1.65381-4.62391c-7.98877-9.79986-12.40663-21.3621-18.14521-33.37578q-2.96953,12.96147-5.939,25.923l1.32276.243-1.7992-4.25642-2.20683.79492q2.6859,8.48068,5.37172,16.96144c-.55581,1.02268-1.80325,2.2583-1.56381,3.03615,3.66959,11.92032,9.7014,22.339,18.9709,29.46272ZM396.20907,757.28672c2.35,3.56357,5.2341,6.88987,6.944,10.73785,4.16848,9.38069,8.36134,18.60382,18.17329,25.05165-3.48294-12.5839-6.77053-24.46192-10.05811-36.33993a20.94521,20.94521,0,0,1,4.31614,7.58044c2.4348,8.21975,4.30642,16.615,6.9734,24.75311,1.11069,3.38931,3.67651,6.30174,5.58068,9.431l1.17275-.84778q-.271-1.89066-.542-3.78127c1.72514,2.076,2.40673,4.44129,3.52392,6.57888a45.11963,45.11963,0,0,0,3.70571,5.239c.26563-3.60442-.95079-6.492-1.18234-9.45657-1.2559-16.08279-9.245-28.61788-20.16424-39.79686C407.01773,748.62,397.69246,745.82,387.27326,746.034c3.07017,3.85351,6.09457,7.64954,9.11316,11.4343-4.62828-3.90323-8.71316-9.88594-14.0004-11.26758-10.33494-2.70083-21.34143-2.832-32.6958-4.09666,15.15854,8.62787,29.59559,16.84518,44.47,25.31145-2.1048-4.91493-4.16243-9.71972-6.2201-14.52451q.33122-.17172.66239-.34357,7.87466,13.94253,15.74926,27.88507.89619-.4668,1.79238-.93373Q401.17663,768.3928,396.20907,757.28672ZM570.7759,939.61717q-2.37876,6.48213-4.75765,12.96426.62833.361,1.25667.72176,4.3398-7.95456,8.67969-15.90914l1.16737.545c-1.29576,3.3728-2.59146,6.74553-4.14086,10.77862,1.16429-.83533,1.91878-1.28387,2.56544-1.85458,8.3599-7.3761,9.8942-17.92444,11.82375-27.835,2.242-11.51556,2.77852-23.36315,4.05533-35.06669-.07567,9.3281-.07623,18.68935-1.32786,27.88024-1.22031,8.961-3.7198,17.74765-5.75907,27.07485,14.07246-12.18271,17.14987-49.2535,17.71429-69.82023-7.65219,11.36653-6.43734,23.192-8.906,34.23646.78995-9.20082,1.5799-18.40165,2.40656-28.03017-12.12886,7.8596-8.22766,21.09142-12.96622,31.38451q1.679-11.01757,3.358-22.035-.71015-.13626-1.42031-.27259c-.88274,3.98708-1.99717,7.93919-2.60348,11.96781-1.64108,10.90513-2.92188,21.86634-4.70248,32.74685-.344,2.10249-2.3083,3.93973-3.52525,5.89928q3.89484-22.50309,7.78961-45.0062c-7.25932,4.76521-14.27254,8.38116-13.60267,18.458,1.09842,16.52049-.07238,32.95007-9.95154,47.47863l1.94606,1.00093Q565.32567,948.27093,570.7759,939.61717ZM867.18,701.04965l-.11769-.10539c-1.85773,3.59525-3.71553,7.19057-6.21552,12.02872,5.92474-4.03981,10.80359-7.36645,15.74957-10.7389V706.418c4.29366-4.05316,7.93143-7.48715,11.5692-10.92121l.4963.56183-3.54742,5.81992c6.68245-2.364,12.43-5.70243,18.18584-9.0267.14168-.08182.37421-.00636.56631-.00517-.58092,1.335-1.16184,2.66991-1.7636,4.05274,11.7922-4.28666,23.14748-8.41444,35.381-12.86146-2.56146-.28218-4.63325.10385-5.81838-.74624-5.39878-3.87281-9.9044-1.60325-14.54038,1.41408-4.42715,2.8816-8.97375,5.57963-13.468,8.35822,5.35459-4.427,10.70911-8.8541,15.86524-13.11713-7.206-1.66521-14.79381-3.63231-22.477-5.10088a34.37965,34.37965,0,0,0-11.19829-.51371c-17.80492,2.60054-30.27917,12.86041-39.901,27.65422-4.12534,6.34286-3.95533,13.02245-4.26254,20.1012a31.8126,31.8126,0,0,0,6.87686-7.86122c1.91451-3.26426,3.15293-6.91854,4.80129-10.34742,1.45171-3.01944,3.06293-5.96216,4.60373-8.93879l.60435.33791q-4.44681,10.92674-8.89354,21.85354,1.26044,1.0047,2.521,2.00941c3.42706-4.235,6.83385-8.48654,10.29064-12.69712C863.99955,704.6028,865.61287,702.84521,867.18,701.04965ZM742.17416,687.4823a40.36548,40.36548,0,0,0-.00119-30.45072c-3.56623-9.07838-7.1177-18.29375-14.55122-25.36159-.23056,2.526.31735,4.88262.32868,7.2419.03371,7.01288.47057,14.10072-.36155,21.02563-1.96535,16.355-10.75526,29.91979-18.88487,43.72757a44.272,44.272,0,0,0-4.661,10.90457c-2.11263,7.93555-.53826,19.37754,3.65532,23.55518-.53889-3.17965-1.07771-6.35929-1.66164-9.80468,1.167,1.64633,2.19557,3.09748,3.51252,4.95542,4.072-7.60918.42288-14.42849-.16707-21.4899,1.577,4.03079,3.15392,8.0615,4.93347,12.60992,8.48885-7.01875-.49309-12.4746-.17344-20.01161,2.6716,5.63389,4.66605,9.83972,6.78994,14.31848,2.17634-1.78745,4.06065-3.335,6.18447-5.07941-1.36982-3.55511-2.72552-7.07322-4.08114-10.59141l.80813-.349c1.77228,3.06874,3.54462,6.13754,5.4955,9.51545,8.106-7.99577-2.76558-13.52588-2.20081-21.226,2.56858,4.60052,4.81248,8.61956,7.0563,12.63852l1.57556-.677-2.34488-11.36709.6061-.125c1.05939,2.24215,2.11872,4.48436,3.27119,6.92379,4.46939-8.25249-2.71866-13.94757-3.26693-21.01262,2.21082,4.145,4.42157,8.2899,7.08862,13.29014.69721-1.91885.95-2.61446,1.20268-3.31014ZM866.246,275.19619q-3.33972,6.41992-6.67944,12.83982.66085.53937,1.32156,1.07876c5.73656-6.2795,11.47311-12.559,16.998-18.60683-.0428.42865-.13847,1.3873-.25532,2.558,5.88711-5.13889,11.54346-10.07637,18.07444-15.77737l-22.88874,11.093c-4.50052,1.18649-9.06551,2.17263-13.48987,3.59577-15.477,4.97829-30.03309,10.93286-41.25241,23.994-14.46164,16.83578-24.43283,34.95771-23.83813,57.69522.15336,5.86586.82505,11.71815,1.25869,17.5767q1.11925-.03424,2.23858-.06846.66873-11.14089,1.33751-22.28181.56362.05859,1.1273.11714v7.059l.94645.10458q.80583-7.28469,1.61172-14.56943l.85.20371v17.49341c2.72117-5.95922,5.41053-11.86322,6.73266-18.059,1.35331-6.3421,1.36723-12.97,1.96745-19.4728l.85883.06941V338.6625l.81009.01147q1.02233-4.5817,2.04459-9.16341l.62539.02255v5.562c13.03161-10.40736,10.31064-26.796,15.66355-41.29661-1.212,8.19307-2.26221,15.29263-3.31244,22.39222l.98295.129c.74813-2.351,1.49626-4.70191,2.28383-7.177.17637,2.02207.33966,3.89358.56623,6.49153,11.59081-8.60923,8.69473-23.68651,16.53525-33.69627-2.20082,7.74142-4.30492,15.14273-6.40909,22.54408q.73753.37,1.47493.74009c4.29771-6.11363,8.539-12.2681,12.91335-18.32641C860.21156,282.924,863.27191,279.0912,866.246,275.19619ZM745.17856,746.60041c.97743-1.35667,2.353-2.57775,2.8688-4.0917,3.85882-11.32478,5.61718-22.91727,3.75169-34.86815-.41966-2.68859-1.0217-5.34879-1.53975-8.02206,6.38405,10.36595,1.973,22.01187,4.34827,32.90643,4.34457-11.31961,5.655-22.781,1.44863-34.5801l1.55081-.14728q1.47034,6.06108,2.94069,12.12229c1.094-15.54166-1.1973-30.16008-10.343-43.239-.89484,6.81084-.97471,13.5456-2.76083,19.79251a79.1459,79.1459,0,0,1-24.026,38.19075,50.41349,50.41349,0,0,0-7.04337,8.19835c-3.50819,4.81549-6.34279,9.80343.27259,14.55.25721.18455.0328,1.04044.0328,2.0062-1.41171.06636-2.764.47183-3.89169.132-18.90837-5.69816-37.5773-4.00883-56.43225.75841a53.226,53.226,0,0,1-20.86555,1.06247c-5.7897-.92037-11.10527-4.82255-16.24978-7.22806,2.59655,16.74938,26.545,39.15566,42.16537,38.54285-2.43229-2.58747-4.76115-5.065-7.09008-7.54254,6.50056,4.78213,12.571,9.84881,21.05233,8.83138-6.59147-6.006-13.36014-12.17348-20.12882-18.34088,5.68467,3.24238,10.0898,8.05472,15.37648,11.52332,5.20032,3.41189,11.29514,5.46054,16.9975,8.10738q.48819-.84537.97631-1.69074-5.11532-4.19631-10.2307-8.39263c7.03875,2.50922,12.364,9.6986,21.81067,5.70971-5.424-4.53723-10.21183-8.54228-14.99962-12.54733,4.555,1.86556,8.2215,4.80583,12.038,7.53652,5.25969,3.76344,10.55435,8.4499,16.2693,1.31234-.87317-1.00842-1.88494-2.177-2.89678-3.3456l-.12063.13119c3.86421.85,7.77366,2.18124,11.3215-.88456,1.0496-.90694,2.88481-1.93683,2.83383-2.82258-.06279-1.09289-1.53625-2.4332-2.72075-3.07181-3.60924-1.9462-7.37261-3.60644-11.076-5.378q.26486-.54367.52987-1.0873l13.10923,5.83537c-.25714-3.411-.44169-5.85914-.62624-8.30717l.848-.09538q1.17632,4.10158,2.35257,8.20318,1.01436-.3021,2.02864-.60414-3.49392-12.393-6.98777-24.786l1.09919-.3284c2.63453,7.67191,5.269,15.34389,8.098,23.58232,2.11312-12.8709-2.18557-24.00583-6.12474-35.22872,5.90159,8.99467,8.129,19.097,8.95977,29.695,6.92518-12.82426,1.48059-24.92109-1.84536-37.13779,6.2279,10.24526,7.53352,21.513,7.91157,33.51169l5.00507-8.48178Zm-73.75178,45.11823.04734.00189.31505-.80184a1.418,1.418,0,0,0-.49428-.05741c-17.0619,4.4838-31.74739,32.6758-25.39152,49.68938,2.78915,7.466,6.52755,14.809,15.29452,17.3333,3.65588,1.05254,7.4168,1.83109,10.94821,3.20224,4.3282,1.68038,7.85541,1.17583,11.751-1.52458,2.10116-1.45653,6.46846-2.57145,7.99877-1.42276,7.036,5.28033,15.00654,5.25,22.963,5.23914,15.76293-.02175,29.83106-3.55267,36.04643-20.41072,1.70025-4.61149,4.47311-7.02511,9.27447-8.08311a19.91781,19.91781,0,0,0,7.98087-4.23407c11.58724-9.60979,15.71229-22.49608,13.91078-36.89988-2.66453-21.30423-22.077-32.21082-42.43286-28.68746,3.10741,1.1466,5.93719,2.19067,8.767,3.23482l-.26637.60631H736.203c8.58858,4.8964,16.45581,9.942,21.40948,18.34682-7.22358-7.18029-14.92053-13.61441-24.789-16.91609q8.14759,6.00632,16.29524,12.0127-.42346.58386-.847,1.16765c-3.19216-2.24914-6.27754-4.67395-9.60727-6.69658-3.156-1.917-6.2-5.0108-11.20422-2.58781,8.27542,8.08849,16.58448,15.45844,21.12444,25.77677a19.42974,19.42974,0,0,1-2.69712-2.92349c-5.51725-6.02139-10.92171-12.16215-16.7463-17.873-1.25814-1.23366-4.07988-.87253-6.1814-1.246q-.03544.73155-.07084,1.46318,9.61931,12.02093,19.23853,24.04191c-4.36534-3.10286-7.63415-7.06554-10.96136-10.97863-2.96286-3.48462-5.92187-6.97833-9.04732-10.31371-.62127-.66288-1.98948-.62582-3.01321-.91149-.28316,1.18338-.93044,2.42516-.75268,3.53462.19994,1.24716,1.14492,2.37474,1.76515,3.55469q6.84811,13.02814,13.69581,26.05636-.51619.29351-1.03233.58708-9.1633-15.7711-18.32661-31.54228l-1.66074.30462c0,3.39406-.742,6.99378.1312,10.14595,3.39825,12.26676,7.309,24.3915,11.02911,36.5691a167.529,167.529,0,0,1-9.00655-21.49941c-2.42985-7.20148-4.30177-14.59129-6.88791-23.51833-4.7843,13.91589-1.20311,26.74812-3.90148,39.14286V786.78847c-7.09484,2.06214-6.89246,8.23031-7.36093,13.01433-1.14121,11.65437-1.33849,23.40119-1.85605,33.89729-4.58451-14.21659-.44183-29.83476.20839-45.5702-8.73983,14.64794-10.99883,30.98723-12.75873,47.48185a86.605,86.605,0,0,1,5.90838-38.74362c.73414-1.90179.77889-4.06981,1.14247-6.11468q-.97146-.20863-1.94284-.41735c-9.42272,11.7085-13.28238,26.042-17.72164,40.102l-2.11074-.87442c5.33683-13.40378,10.67365-26.80763,16.38273-41.14626-9.63412,9.19145-11.8762,21.18849-15.68383,32.36384q-.82377-.33882-1.64752-.67757,5.96289-15.30746,11.91109-30.57736C676.26828,790.245,673.84753,790.98184,671.42678,791.71864ZM792.69062,673.72578l.903,1.06555-28.73578,32.4609q.34228.26025.68463.52036l25.60607-19.85686q.43333.57841.86666,1.15667c-9.68657,7.453-20.23092,13.98386-27.86682,25.80342,12.22474-7.90269,22.39111-16.51854,35.3195-20.17994-12.005,6.93791-24.92746,12.50963-33.71079,24.05051,11.4708-8.67683,24.39849-13.37973,38.50278-15.12207-14.99039,4.097-29.49665,8.98278-39.24629,21.83011,13.37762-3.80511,26.98861-7.67659,40.59953-11.54807q.25815.87359.51624,1.74731c-16.11993,3.74546-32.38,7.14036-46.43162,17.39358,12.69775-1.33359,24.70493-2.59467,36.71218-3.85567-13.16441,3.21419-27.09365,2.62879-39.06831,10.45155h34.99591c-11.69479,2.58963-23.731-.55218-35.28879,2.6818l.05665,1.50038H763.611q.0236.415.04706.83l-12.90328,2.85342c20.01246-.09637,27.84563.7375,34.02765,4.77737-11.78529-2.27172-23.47791-4.74492-33.8952-.11329,9.48048,2.44754,19.66189,5.07606,29.84329,7.7045q-.14916.69043-.29846,1.3808c-11.58871-1.82269-22.75559-9.69769-35.39167-3.408,9.89434,2.55,19.095,5.74956,28.55893,7.08952,7.15016,1.0124,15.09382,1.14828,21.89348-.92261,27.1775-8.277,43.43938-31.78872,40.73709-61.83642-.2512-2.79306-1.62416-6.4009-3.71771-7.92408-4.49128-3.26783-3.11712-5.52152-.77183-9.343,8.24094-13.4277,7.94052-20.72526.02993-29.81916-6.565-7.547-14.11359-14.30387-21.67025-20.90248-6.32769-5.5255-10.15434-5.46878-17.086-1.577-14.07358,7.90163-17.673,21.41255-19.79615,36.35077,1.75472-2.27907,3.16251-4.1075,4.5703-5.936q.34439.2504.68862.50078-5.50407,9.62223-11.00807,19.24432.59163.38529,1.18339.77065,4.10976-4.9887,8.21961-9.97727l.47309.42637q-6.20123,9.99347-12.4025,19.987.45494.256.90988.512,7.29393-9.56433,14.58786-19.12859c-4.79878,8.41437-11.28129,15.67152-14.28261,26.21328C775.53256,691.73693,784.11162,682.73136,792.69062,673.72578Zm-181.19826,69.602c-13.57428-8.51228-27.64513-15.53369-44.57647-12.29369a16.31582,16.31582,0,0,0-3.719,1.45647c-6.99847,3.285-8.54438,6.1746-6.68679,13.609,1.013,4.05435,2.81852,7.90842,3.87407,11.95522.53931,2.06759.98107,4.72968.13769,6.48412-2.739,5.69774-1.28065,10.69366,1.28612,15.84362,1.33968,2.68789,2.13969,5.63943,3.35881,8.39417,1.5429,3.48623,2.38928,8.0773,5.09773,10.07916a38.86168,38.86168,0,0,1,11.76123,13.46714c4.15414,7.81507,12.41488,9.40664,19.97742,12.77077,12.24291,5.44606,22.07124,2.03535,30.52463-5.55355,10.39022-9.32761,19.38419-20.21057,28.99349-30.43372-10.53526,2.20941-18.96034,8.13381-25.87076,16.61734q-.58-.78285-1.16-1.56562c6.78161-5.78488,13.56323-11.56983,20.62533-17.59395-14.61534.09434-23.84421,11.083-35.07969,17.80954l-.88932-1.49793c10.01133-6.47133,20.02273-12.94272,29.80434-19.26551-14.13751-1.44934-26.65882,5.247-39.44965,10.86778q-.24987-.67228-.4998-1.34451c9.79035-4.38673,19.58069-8.77347,30.33987-13.59427-10.969-4.70031-19.93671,1.45947-29.50587,1.69437q11.094-3.18058,22.188-6.361c-14.88836-6.05817-29.09811-1.55738-43.31736,2.78145q-.1842-1.05924-.36847-2.11843l38.01522-7.592c-10.45177-3.48008-21.51522-.51281-32.08446-2.1655q-.01165-.75747-.02315-1.51493h26.4407l.004-1.464c-1.70759-.47224-3.41518-.94442-5.42683-1.5008,1.13345-.54274,1.91-.91456,3.50986-1.68066-15.23165-6.12167-29.98273-4.207-44.78347-2.03221,13.95855-4.7257,28.19158-5.36529,42.77042-2.95706-13.9626-7.55666-28.89683-9.81671-44.54017-8.81026,13.57686-2.84831,26.86756-.82337,40.29148,2.02326a62.48414,62.48414,0,0,0-13.72071-6.21349,99.11045,99.11045,0,0,0-15.11179-2.973c-4.7873-.622-9.65258-.64511-14.48352-.93162C583.938,735.14667,597.829,737.97043,611.49236,743.32775ZM760.769,619.12728l1.82647.52071c-1.54059,4.60128-3.286,9.14649-4.56359,13.81973a85.50524,85.50524,0,0,0-2.89957,13.96149c-.44952,4.52408.05412,9.14292.139,13.72008q.77573-.07279,1.55143-.14553a55.59457,55.59457,0,0,1,12.05376-35.33341c-7.354,15.09907-12.8593,28.93132-7.16876,44.42836a79.83543,79.83543,0,0,1,10.94471-38.90649c-1.93123,6.68217-4.95262,13.156-6.0446,19.94042-1.08744,6.75567-.23833,13.823-.23833,20.75373,1.48227-1.36821,2.34341-2.95768,2.00676-4.2303-2.73643-10.34434,3.64406-18.0094,7.43875-26.46035,1.616-3.599,3.81988-7.25624,4.18632-11.03912,1.69248-17.47-7.38666-30.91653-23.99107-37.01876a12.571,12.571,0,0,1-5.88355-4.67156c-3.44043-5.3862-7.84136-8.80649-14.35681-8.9867-14.65947-.40553-29.32084-1.0238-43.98115-1.01743-9.88685.00426-20.30728,9.50188-22.58188,19.8351q7.50342,1.09608,14.91221,2.17837c.8461-2.63355,1.54891-4.82094,2.25166-7.00833,1.30114,3.35644-2.62775,8.24738,3.87546,9.46482.22434-2.027.44645-4.03344.66855-6.03985q.34019.04269.68029.08532.726,3.746,1.45185,7.4919l.76051-.098q.84977-6.37377,1.69947-12.74761c.87093,3.87371.63519,7.68491.94009,11.45234.28113,3.475,1.14262,6.90308,1.74843,10.35176q.469-.105.93785-.21015V596.98254l.42582.00727q1.37027,9.02778,2.74041,18.05563l1.29485-.18986V590.1854c1.14037,4.93843.62728,9.94224,1.29,14.78514.61707,4.50919-.18658,9.85133,4.6066,13.50064-.942-7.07106-1.81326-13.61162-2.68454-20.15218l1.7878-.3535c.61533,8.72641-.13035,18.00584,9.79916,24.46737-1.43254-9.39873-2.68264-17.60044-3.93274-25.80216,3.41574,8.52019,2.83447,18.22648,9.98693,26.6033-1.03205-9.35272-1.93088-17.49758-2.82964-25.64251,3.99854,9.71133,1.74668,20.999,7.57373,30.06617l1.78885-.4047q-1.47979-14.4431-2.95965-28.8862l1.15471-.124q2.36765,15.89718,4.73521,31.79438.30273-.14445.60539-.289,2.2037-11.70874,4.40751-23.41749c-1.98291,27.39051-1.98291,27.39051,1.70444,32.63007.35994-6.3314.71268-12.53614,1.06541-18.74082l1.39835.12231c-.28441,4.34694-.71127,8.6906-.81225,13.04181-.09686,4.16974.14468,8.34731.23748,12.52146q.3255-.12336.65107-.24665,3.78312-16.64732,7.56624-33.29469.98709.18964,1.97424.37917c-3.90057,12.78719-7.94562,25.5611-4.923,39.92469,1.99654-8.25122,3.75148-15.50369,5.50634-22.75622.328,4.18072-.83967,8.01-1.39639,11.926-.52428,3.68728-.40449,7.466-.58058,11.49227C754.54722,641.63629,757.65813,630.38178,760.769,619.12728Zm-63.9459-.01315c-5.25005-8.46319-11.921-12.22739-19.903-14.54017-11.793-3.41686-23.43882.64337-35.16284.08881a17.49677,17.49677,0,0,0-16.29916,8.90117c-2.93838,4.85409-6.91826,7.00337-12.19718,8.43193-10.35512,2.80223-17.75765,8.71648-20.51484,19.99882a28.77037,28.77037,0,0,1-7.64038,13.58266c-7.76506,7.26421-9.80832,15.391-7.5068,25.35642.61337,2.65593.95883,5.98586-.10853,8.297-2.63251,5.70005-2.5067,11.17247-1.34164,17.13421a20.7607,20.7607,0,0,0,21.23136,16.70259,31.75816,31.75816,0,0,0-5.92467-3.63854c-2.24991-1.122-4.54282-2.15774-6.817-3.23112l.35448-.78246c3.06692,1.11876,6.13384,2.23753,10.87709,3.96785-2.05921-3.06245-2.97727-4.91319-4.34709-6.32566a30.73686,30.73686,0,0,0-4.675-3.35777l.35917-.56637q2.388.89844,4.7759,1.797.32907-.58722.65813-1.17457c-1.95375-1.51787-3.90757-3.03573-6.30307-4.89689,1.97731.3556,3.47238.62449,4.73415.85135.13225-2.6695-.20189-5.06452.457-7.14512,1.06289-3.35643.79442-5.91006-2.30977-7.91387A34.27823,34.27823,0,0,1,586.153,688.221c1.02016-1.30191,1.81158-2.31186,2.62446-3.3493,2.16669,1.21884,4.2666,2.40019,6.3665,3.58148q.7133-.62173,1.42653-1.24353-3.718-4.59145-7.4361-9.18285c8.302,6.36063,8.302,6.36063,13.55057-.23735-2.87824-1.97472-5.94348-4.07778-9.00879-6.18083q.469-.48294.93806-.96582,5.0721,3.44451,10.1442,6.889l1.29667-1.43682c-1.877-3.08286-3.75386-6.16565-6.05334-9.94252,3.18727,1.90263,5.73774,3.425,8.28821,4.94745q.46764-.63787.9352-1.27583-2.80254-3.34728-5.60509-6.69448.27945-.21231.559-.42455,2.92128,1.84776,5.84257,3.6956.46113-.58838.92226-1.17681a78.90073,78.90073,0,0,1-6.76322-6.3223,80.7658,80.7658,0,0,1-5.2818-7.69953c5.16949,3.94372,7.85185,10.49378,14.83536,11.78157q.69189-.66189,1.38373-1.3238-6.12968-6.49975-12.25935-12.99965l.5033-.4998c4.36757,3.50924,8.73515,7.0184,13.47028,10.823,1.38325-1.97249,2.37166-3.382,3.37805-4.8171-3.08706-2.7567-5.701-5.09087-9.08041-8.10856,4.50562.35266,6.82113,7.28134,11.068,2.07662-1.51521-1.98543-2.88181-3.77624-4.24841-5.567q.40113-.2806.80218-.5612c2.48341,1.83416,4.96675,3.66833,8.46417,6.25146-.43686-2.32621-.61218-3.25951-.79211-4.21751.98876.18427,1.93682.361,3.7421.6975-1.918-2.09186-3.22685-3.5193-3.96456-4.32387,4.19974.8252,8.87124,1.74312,13.54274,2.661q.14486-.71278.28966-1.42556-4.87784-3.85528-9.75581-7.71058.36547-.45336.73086-.9068,6.0593,3.93774,12.11865,7.87562l.27805-.42714-13.7896-15.63264.54959-.25819q9.075,7.44929,18.15,14.8985.50581-.59771,1.0117-1.19541-6.14814-5.40745-12.29621-10.815,1.377-1.35758,2.75391-2.71516l6.155,9.08222q.52573-.54819,1.05156-1.09631-2.03334-2.48094-4.06659-4.962l.3414-.3193q6.10209,4.3097,12.20425,8.61934.48672-.68665.97351-1.37346l-14.46918-11.86563q.45483-.50729.9096-1.01457,7.89887,5.7425,15.79781,11.485l.92429-.81268q-5.56428-7.48714-11.1287-14.97423.33725-.27294.67456-.54589c3.57266,3.81841,7.14533,7.63688,11.84375,12.65859-1.90941-5.90208-3.28252-10.14657-4.67017-14.43583,2.95083,3.795,5.75439,7.40065,8.558,11.00625q.598-.47665,1.19611-.95338-1.45188-3.2558-2.90376-6.51167.26151-.1242.52308-.24847c1.16192,1.28947,2.32383,2.57887,4.4438,4.9315-1.40275-5.49843-2.44648-9.5895-3.49021-13.68057q.55585-.125,1.11156-.25,2.334,5.769,4.66786,11.53822.59257-.22428,1.18513-.44848-.70407-2.8639-1.40828-5.72774.33525-.14569.67058-.29147,2.08315,3.31077,4.16624,6.62147.49868-.21033.99729-.42071c-.47973-2.55747-.95939-5.11494-1.71521-9.14418,2.32264,3.26524,3.74253,5.26144,5.69858,8.01129-.39175-2.90489-.642-4.76039-.84036-6.23175,3.21636,2.54048,6.27628,4.95738,9.33628,7.37429q.40008-.45651.8003-.913c-.2026-.695-.40526-1.3901-.62442-2.14214C690.95971,618.11306,693.23641,618.50174,696.82306,619.11413Zm90.27821-359.13246,1.28457.75456c3.00069-8.2707,6.00146-16.54142,8.89823-24.52554-.431,11.26938-5.79348,21.28711-10.67022,31.57709q4.96584-5.5431,9.93175-11.08622l.89008.64848c-1.50765,2.40557-3.01537,4.81115-5.27179,8.4114,12.73419-6.23412,18.23445-16.51252,20.8301-27.79524,2.83768-12.3347,3.59357-25.14835,5.45431-39.25033-4.66646,4.14775-8.16514,7.2575-11.66382,10.36725q-.47246-.47607-.94477-.95212,7.55817-9.08523,15.1164-18.17047c-11.48562-1.92282-17.59715,5.31959-24.26163,11.30914-21.42395,19.25425-23.1149,44.90079-22.183,71.26436.64463-4.29341,1.28926-8.58679,2.10746-14.03649.82442,2.32533,1.20331,3.39392,1.95752,5.52117,2.59509-11.79833,4.93808-22.45062,7.28107-33.10291l1.21639.27113q-3.02052,16.03725-6.041,32.07453,1.06606.29523,2.13207.59039,4.91309-15.60825,9.82608-31.21657l.99282.22546Q790.54267,246.42122,787.10127,259.98167ZM911.18643,575.30278c13.583,3.62679,24.13317-3.56273,35.52131-6.7035-8.4078,5.26256-17.52282,9.18124-27.27184,9.21082-12.43362.0377-20.07119,7.43429-28.01164,15.21047,14.93647-1.89794,29.94588-3.3849,44.3864-7.08945,11.84612-3.03909,19.14243-7.48862,18.93145-23.35036-1.56444.61938-3.13657,1.24184-4.6978,1.86,2.79776-3.41357,5.40844-6.59881,8.01913-9.784q-.6509-.51737-1.30185-1.03464c-1.18968.38126-2.37935.76253-1.99718.64008,2.2204-5.43116,4.67444-11.43381,7.12848-17.43638q-.77173-.72428-1.54339-1.44853c-4.972,3.06618-10.40134,5.589-14.822,9.31009-9.598,8.07913-18.6711,16.78106-27.98193,25.20271C915.63554,571.61767,913.62452,573.23343,911.18643,575.30278ZM698.60274,670.06493q.85482.204,1.70969.40819l-3.31308,19.8812,2.22.36441c.85-3.05216,1.7-6.10426,2.58257-9.27355,1.5278,6.16439-.50071,10.91575-5.057,14.90717a98.70643,98.70643,0,0,0-7.81233,7.53079c-6.31818,6.90315-9.105,7.20162-18.1399,4.15183-6.75511-2.28019-12.23935-9.745-21.23143-4.88409.01727,5.4434,2.054,10.42456,7.59751,13.74582-.63813-1.19122-1.27619-2.38243-2.09893-3.91827l10.31959,5.9974.91044-.99771-1.54892-4.11848.70624-.37371,5.87593,6.23111q.51359-.45819,1.02709-.91645-2.57964-4.00425-5.15927-8.00864l.58127-.359q4.71618,4.9845,9.43244,9.969.44224-.35886.88449-.71778c-.6847-1.781-1.36933-3.5621-2.30229-5.989,3.38273,3.11629,6.13027,5.64747,8.87788,8.17871l1.058-.99338c-.4963-.95219-1.0517-1.87906-1.473-2.86335-.47225-1.103-.82295-2.25809-1.40849-3.90106,2.87586,2.50642,5.21522,4.5452,7.55457,6.584q.47979-.52071.95967-1.04156l-3.16469-4.03988c3.71666,1.60339,6.7477,2.911,10.05945,4.33967-.19413-2.9751-.29966-4.59261-.40518-6.21013q.61815-.13143,1.23632-.26294l-7.50156-6.41105q.24838-.333.49679-.66624c2.18613,1.16367,4.37233,2.32733,7.48813,3.98575-.98107-2.12941-1.48255-3.21776-2.06766-4.48771.88463.19182,1.65381-.93751,4.02435-5.3476.98149.74064,1.96291,1.48136,3.58014,2.70181.37036-2.853-.03972-6.371,1.04933-6.92106,4.57331-2.30991,2.71747-5.44487,2.04472-8.63893a5.933,5.933,0,0,1,.22966-2.75453c1.58409-5.43368-3.19217-17.1168-7.582-19.9049-2.95384-1.87619-16.56476.20616-20.85807,3.63917h13.48735c-8.95082,4.75618-19.446.40868-28.35626,6.4165-9.12894,6.15538-12.809,14.88143-14.99766,22.61426,4.98437-4.02107,10.81624-9.45384,17.36218-13.81477,7.47946-4.98284,15.66411-5.13508,23.8875-.30833-3.72882-3.10755-7.47491-6.46923-11.61416-7.05575-4.1396-.58651-8.67249,1.602-14.24855,2.845,9.9151-6.25475,18.54578-9.101,26.07922,1.13107,1.66235-1.87689,2.90573-3.28056,4.149-4.68429l.87247.84288Q697.60458,673.36575,698.60274,670.06493Zm-10.734-25.01472c-.57694-3.70071-1.08891-6.98449-1.60087-10.26826l1.10631-.26414c1.07933,4.02491,2.15865,8.04983,3.37728,12.59433.71071-.89338,1.0361-1.26786,1.3166-1.67339.10077-.1456.05476-.38875.14707-.54512a.9769.9769,0,0,1,.32553-.25791c.49329,1.20422.99568,2.43075,1.49814,3.65735q.67449-.17811,1.349-.35609-1.39944-6.96979-2.79894-13.9396l.82526-.21629c1.54031,4.9757,3.08056,9.9514,4.74689,15.33417.44273-1.33514.79141-2.3867,1.41492-4.26716.508,2.57139.82715,4.18723,1.14632,5.80306q.463-.02843.9261-.05678c.3633-1.19038.72659-2.38082,1.03436-3.38923.924,2.43606,1.89487,4.99577,2.86573,7.55547l1.47751-.241V640.31108l1.00023-.09923q1.18744,9.046,2.37481,18.09213.72767-.06251,1.45527-.1251V638.91266A31.50224,31.50224,0,0,1,714.232,650.553c.17874,3.95365.03944,7.92164.03944,11.88333q.8909.01521,1.78171.03035c4.0924-5.91558,1.77669-12.56362,1.98172-19.08062a31.546,31.546,0,0,1,2.25516,7.84535,45.065,45.065,0,0,1,.49917,8.54067,55.173,55.173,0,0,1-1.35416,7.45351c4.95011-7.87758,5.46334-16.22831,4.54591-24.84444-1.40276-13.17378-19.60084-24.23255-30.54212-17.58443a10.66764,10.66764,0,0,1-6.59126.90645c-8.74005-1.28-15.17221,2.58446-20.56743,8.78459-2.69607,3.09818-3.24371,6.37881.22154,9.04474,2.00837-1.07541,3.67763-1.96927,5.5304-2.96146.23112,1.299.47469,2.66824.76792,4.31674,6.00285-1.85333,1.70458-7.50275,4.67457-11.03185.35,3.82029.63729,6.95609.92457,10.09189q.79669.21756,1.59339.43526c.716-2.304,1.43185-4.60814,2.16214-6.95833C683.58284,640.07744,680.76376,645.47161,687.86874,645.05021Zm5.70872-462.65769c4.62374-6.10192,6.12782-12.91176,5.69886-20.3521-.9647-16.73526-11.71241-28.58157-20.49561-41.36705-1.09009-1.58687-4.11911-1.84175-6.28013-2.72633,0,5.24751.32259,9.13334-.06574,12.94678-.86792,8.52359-2.50711,16.98632-3.01433,25.52243-.31147,5.24142.88883,10.57264,1.41024,15.86353l1.362-.12552V145.816c2.11515,11.00512-.76715,22.71328,7.06379,34.151.5963-10.23564,1.10114-18.90108,1.606-27.56653l.31357-.00009q.96831,15.13765,1.93661,30.2753l1.39912-.15371V158.13866l.47659-.03309q.69714,7.54563,1.39422,15.09128l.94625.10991q1.13089-9.08835,2.26186-18.17671l1.54311.17866q-1.02642,10.96719-2.053,21.93441l.86317.28012q2.3626-8.13168,4.72513-16.26332l.98919.31ZM650.63487,657.958c1.85473-3.41552,3.17671-5.85005,4.22708-7.78436,2.22439-.41162,4.4936-.83162,7.967-1.47444-13.08784-5.05745-32.5493-1.27771-38.8874,7.96724-6.9719,10.16944-13.27259,20.92254-15.58817,33.4019-2.30816,12.43935,4.68423,27.89045,16.40783,34.68927-1.12415-2.91321-1.9599-5.07892-2.91754-7.56065,1.293.46777,2.27012.82127,3.84386,1.39065-3.97869-8.10283-7.59457-15.46669-11.21045-22.83055q.42-.154.83995-.30812,4.26062,6.93538,8.52116,13.87064.93148-.50968,1.863-1.01925-4.98052-11.24793-9.96112-22.49579l.37749-.31945,4.72731,5.868,1.05128-.34847c-.86785-3.55966-1.73577-7.11938-2.67586-10.9752,1.44108,1.24513,2.54865,2.202,3.65616,3.15888l1.08918-.68645c-.59651-2.22543-1.193-4.45093-1.84179-6.87119.98807.65183,1.7378,1.14645,3.24979,2.144.86464-3.93023,1.6127-7.33044,2.33215-10.60107.34931.40295,1.06946,1.23346,1.95578,2.25579q.9276-1.81379,1.72619-3.37532c.75966.48428,1.4773.94177,2.195,1.39926l.49386-.63393q-2.17515-3.23314-4.35031-6.46636.90915-.76806,1.81836-1.53605,2.418,3.8149,4.83591,7.62981.62142-.54693,1.24289-1.09393c-.25266-1.05772-.55672-2.10648-.7433-3.17567-.18224-1.04407-.24455-2.109-.46854-4.16456,2.94622,5.12808,2.94622,5.12808,7.91744-.96359,1.18884.86247,2.37767,1.72493,4.93192,3.578-1.60541-4.11142-2.58606-6.62273-3.56664-9.134l.74393-.377C647.56341,652.95051,648.68854,654.78489,650.63487,657.958ZM767.372,234.18942a205.08373,205.08373,0,0,0,.73225,34.18288c1.8127-13.94386,2.97258-26.81739,5.28389-39.48079,2.10963-11.55849-.40987-22.38213-3.5335-33.14477-1.001-3.449-3.89869-6.48831-6.39664-9.2991-1.14884-1.29256-3.42609-1.58224-5.57138-2.48675.62547,5.90373,1.951,10.51122,1.38353,14.87233-.89967,6.91294-2.97734,13.68366-4.71682,20.47353-2.39445,9.347-4.33939,18.67237-.53106,28.233q1.85784-13.46121,3.71561-26.92242c.33105,7.48082-.65086,14.784-1.19611,22.11961a36.56816,36.56816,0,0,0,5.29109,22.20416V242.37458l.69078-.04652q.342,4.48417.684,8.96832l.7254.00738Q765.65249,242.74659,767.372,234.18942ZM587.487,134.69982q.28659-.348.5733-.6959,8.71257,14.59006,17.4252,29.18015l1.55919-.87537-13.26007-25.86964q.48064-.30041.96142-.6008l12.7895,20.33029.95639-.438q-4.35324-9.77691-8.70641-19.55379l1.58416-.66969c4.19141,9.47757,8.38283,18.95515,12.92636,29.229a15.21808,15.21808,0,0,0,.45266-2.96435c-1.84039-16.92059-8.83683-30.46373-24.45954-38.87621-8.84655-4.7636-17.24-10.36571-25.87929-15.52028a32.62,32.62,0,0,0-4.70024-1.79077c4.87528,9.443,9.31565,18.04363,14.31653,27.72978-.53806-2.97786-.859-4.75384-1.17989-6.52984,5.46935,9.97743,6.22153,22.32467,16.98533,30.45238-2.8509-6.64-5.35529-12.47289-8.13451-18.94582,5.88278,8.87431,11.30605,17.05557,16.72938,25.23681l1.71458-1.02745Q593.81409,148.6,587.487,134.69982Zm-13.55294-32.39869c2.55761,9.07,10.579,12.02,17.52771,16.11412,1.47815.87086,3.00713,1.665,4.43136,2.61617,9.22145,6.15823,16.99385,13.43705,19.82713,24.77665.835,3.34175,2.34446,6.515,4.06995,11.18768,3.01013-10.34919-2.71237-16.84-5.33795-24.22672,2.85992,3.79809,4.1417,9.00273,7.46135,11.68751,3.863,3.12417,2.25858,7.3254,4.12254,11.18744,4.68772-14.16759-2.91195-34.30322-15.49789-44.35874-7.0756-5.653-13.375-12.27624-20.05182-18.43235a15.57092,15.57092,0,0,0-2.6216-1.404c3.662,13.80911,14.09338,21.12147,24.22038,29.60282-16.58462-4.90734-27.73961-15.84635-38.3162-28.09811-4.94241,11.01544-4.79968,13.17415.94163,16.7708C574.42423,106.98637,574.17919,104.64375,573.93408,102.30113ZM701.85372,741.30022c-1.07058-8.07527-5.19906-12.03291-11.22219-13.54847a106.226,106.226,0,0,0-18.02367-2.7239c-15.24935-1.12779-30.44422-2.14522-42.28433-14.075-1.52626,11.93032,4.27135,22.00676,17.83408,26.28594-.1-1.16982-.18818-2.20152-.27629-3.23315,2.79943,3.58,4.11554,8.50732,10.28777,7.72709-1.84927-2.70278-3.5856-5.24053-5.32193-7.77828,5.32521,2.74629,7.44659,9.8814,15.4869,8.89572-2.50327-3.23643-4.66437-6.03034-6.82539-8.82425q.41413-.29507.82834-.59c1.91507,2.03347,3.83022,4.06687,6.004,6.375.42567-1.20709.72421-2.05361.987-2.79873,1.241,1.18744,2.55132,2.44117,3.86163,3.695q.36367-.3769.72721-.75373-1.13991-1.58845-2.28-3.17685l.43518-.24511q3.62232,2.95821,7.24456,5.91649.50308-.60682,1.00631-1.21373l-11.05715-12.45292c8.87795,5.11039,16.01,13.42874,28.389,11.83193-2.39068-2.16907-4.22575-3.83414-6.06083-5.49914q.28586-.32382.57169-.64771C695.07554,736.51893,697.98539,738.57157,701.85372,741.30022ZM492.24164,864.609c-10.03189,4.7908-19.37642,8.98886-28.41609,13.764a10.64178,10.64178,0,0,0-4.72972,6.4144c-3.24391,14.85752-7.8994,29.05328-17.02026,41.4697-.79725,1.08526-1.40775,2.30774-2.735,4.51345,12.68712-5.73075,17.753-16.47518,24.62273-25.82573-2.81405,5.21914-5.62809,10.43827-8.75257,16.23322,9.33-5.39257,12.88388-14.35031,17.5895-22.57013q-.4104,2.27973-.82085,4.55946.67968.26959,1.35936.53925C479.49469,890.974,485.65066,878.24132,492.24164,864.609ZM956.83851,376.27243c-10.24105-4.21751-19.50251-5.348-27.61016.09713-8.47522,5.692-16.74553,12.23593-23.41561,19.88154-4.64226,5.32131-6.51181,13.09668-9.423,19.8605-.5189,1.20565-.07378,2.82625-.07378,5.31441,3.43042-7.06092,6.20048-12.76265,8.97054-18.46438q.5463.31527,1.09268.63054-1.76081,4.48568-3.52147,8.97134l.92379.40931,13.2928-15.64208q.43071.37286.86149.74579-5.43756,6.958-10.8752,13.916l.86988.71393q5.98136-5.64432,11.96277-11.2886l.64142.725-17.614,18.77767q.60212.60348,1.20416,1.207a12.08832,12.08832,0,0,0,2.084-1.49559c8.41955-9.24607,17.26848-18.15325,25.05577-27.907C937.76133,384.58757,945.75241,379.51033,956.83851,376.27243Zm4.99228,78.17914c-18.83425,4.85021-36.03678,11.25989-50.97234,22.4559-5.1341,3.84868-9.10579,9.2489-13.60239,13.94621-.92212.96323-1.81675,1.95269-2.724,2.93009l.49582.39949c2.20725-1.34269,4.4145-2.68541,7.78366-4.735-1.20345,2.05046-1.59045,2.67376-1.92934,3.3222-.05692.10878.09462.32647.11951.40179,11.88284-1.62052,24.40192-1.2,34.34192-10.61788-4.42708.58109-8.39542,1.10194-12.36376,1.62283,12.40285-2.77338,22.90923-7.94576,28.23431-20.44281-2.25292-.11389-4.84724-.245-7.44149-.37616C950.64412,462.73874,957.35762,462.29957,961.83079,454.45157ZM603.81325,685.78415q-.884-.17539-1.76787-.35085c-5.86628,7.41366-6.45853,16.1093-4.52737,25.00669,2.83076,13.04153,12.9888,20.60065,22.508,28.52858,9.56153,7.96317,20.62253,9.11928,32.57482,6.85644-7.46918-4.51339-15.05928-8.74494-22.88629-12.47971-13.45288-6.41916-23.65456-15.52187-25.78349-31.0687C603.19134,696.87508,603.81325,691.287,603.81325,685.78415Zm324.45962,22.0697H910.61718c6.6828-1.51814,13.582-3.08538,20.48107-4.65262l-.32791-1.50765H912.16987c5.24983-.94149,10.59925-1.08485,15.7495-2.1718,4.86919-1.0275,9.52922-3.04621,14.28121-4.629-5.692.25672-10.89289,2.50978-16.23755,2.92881-8.6413.67756-17.17477.89848-25.44354,4.18225-8.52914,3.38714-17.36289,6.00706-26.06336,8.96257a108.33464,108.33464,0,0,0,23.48764,7.04323c8.09933,1.397,16.0216.40826,23.00028-5.13626-.91828-.36623-1.485-.59225-2.08054-.82981ZM580.36177,223.271c14.713,4.77389,29.42587,9.5478,43.54218,14.12813-1.42534-2.15017-3.36741-5.07972-5.30948-8.0093,6.71014,6.02772,10.89841,14.57262,22.058,17.73562-5.57991-6.9071-10.1828-12.60486-14.72989-18.23341,10.46155,5.66747,14.54156,18.24474,24.62416,24.36445l1.61514-1.52q-8.48862-9.67945-16.97729-19.359l.95708-.91077c7.63863,7.28362,15.27718,14.56723,21.85823,20.84247C636.19254,218.89574,610.74332,218.90779,580.36177,223.271ZM839.5042,510.84669l1.81228.53969c18.81977-23.50284,21.93333-55.801,5.88152-72.99648,4.26247,10.4012,1.70332,18.9996-1.63206,27.69636-1.94669,5.07584-2.86195,10.54725-4.24128,15.84065l1.46912.465q2.5637-4.39242,5.12724-8.78481l-1.084-.07342Q843.17055,492.19017,839.5042,510.84669ZM780.096,212.86264l.6977.21331c2.73524-5.48917,6.15069-10.75547,8.04-16.52182,2.57873-7.87078,5.22886-16.07118.38211-24.27286-1.93032-3.26643-4.09652-3.721-6.872-1.27225-5.09228,4.49279-10.13651,9.04018-14.31024,12.7691,3.94757,9.36024,7.06113,16.74309,10.33225,24.49953.71868-5.59028,1.40667-10.94144,2.09459-16.2926l.97212.1115Q780.76424,202.47958,780.096,212.86264ZM917.75265,718.80646c-11.27178,3.50875-22.24642,1.99836-32.97021-1.9185-11.2515-4.10967-21.25717-2.027-30.51436,4.822,7.52883,2.14627,14.94647,4.20911,22.33313,6.37734C891.95224,732.59326,906.02282,731.32847,917.75265,718.80646ZM872.22182,304.146l.03713-.58274q7.12117-4.20051,14.24233-8.401-.45462-.73617-.90939-1.47234l-7.84093,3.51133c4.5138-3.91708,7.97422-6.92,11.43465-9.9229q-.54809-.61161-1.09611-1.22314c-8.15591,6.76955-17.66828,10.16053-28.0578,11.45713-1.45513.18161-3.24084.48882-4.19855,1.42695-5.73914,5.62159-11.28073,11.44483-16.88854,17.20051l.97387,1.26548c15.64327-3.41116,31.53969-6.15807,44.121-17.67279Q878.13062,301.93924,872.22182,304.146ZM694.53762,658.335q.39872-.58416.79736-1.16841a10.10593,10.10593,0,0,0-1.45646-1.50458c-13.50386-9.17852-30.15484-6.2258-41.36522,7.04539a15.16284,15.16284,0,0,1-6.64839,4.39464c-11.933,3.81414-17.65373,10.11616-18.54466,21.10185-.90974,11.21877,4.84255,21.54843,13.03671,24.45262-2.42572-7.25016-4.99675-14.93458-7.52527-22.492,1.64032-.48875,3.22616-.96128,4.81206-1.43373-.74225-1.39507-1.42254-2.828-2.24424-4.17457-.821-1.34548-1.7836-2.60453-2.684-3.90148l.72449-.62757,3.41727,2.89174c1.40955-.86526,2.67048-1.63933,4.14177-2.54257-1.35415-1.68164-2.62117-3.2551-4.73541-5.88061,2.52851,1.05023,3.89707,1.6187,5.73557,2.38236-.638-1.5078-1.00065-2.36488-1.258-2.97314,1.53122-.6033,3.17077-.91359,4.39478-1.79857,2.8923-2.091,5.275-5.134,8.42095-6.58007,8.93173-4.10583,18.05626-7.84493,27.30771-11.163,2.1532-.77225,5.17655.479,7.67989,1.20933A42.2,42.2,0,0,1,694.53762,658.335ZM367.31654,771.47618c-2.89758-.68959-4.19229-.99778-6.15426-1.46472,11.55717,10.87569,22.00893,13.64491,37.1882,10.368-5.57109-10.6524-16.8685-7.75324-25.784-10.89863q7.13853.71027,14.27709,1.42059l.37427-1.4317C375.512,762.01185,363.80611,754.554,350.966,746.37348c2.7744,7.86947,5.44991,13.33763,13.35214,14.11561,3.09283.30442,6.00611,2.4332,9.00114,3.73106l-.22655.5319-13.16255-3.92379q-.22868.59132-.45739,1.18248,4.764,2.24154,9.52786,4.483-.22117.48567-.44235.97142c-3.12457-.78366-6.24912-1.56724-10.79435-2.70719C361.24134,767.20357,363.52688,768.811,367.31654,771.47618Zm336.54-595.56343c6.05237-11.96924,4.22939-23.95013.47826-35.96217,5.73628,10.04462,6.92106,20.63457,4.6894,31.92,2.33565-6.8739,5.27026-14.16264,4.09534-20.71446-2.49285-13.90176-7.12624-27.41969-10.88548-41.10745-7.66932,1.62546-11.0917,17.79738-5.54732,28.73056.84288-2.57219,1.56353-4.77139,2.32641-7.09933C703.4639,146.32282,708.41036,160.59431,703.85649,175.91275ZM702.2724,880.43318q-.38968.09116-.77939.18225-1.94437-6.03066-3.88889-12.06124c.00846,11.939,1.814,23.544,2.109,35.18725.31728,12.51908-6.25972,22.53908-14.44444,31.71256,5.60229-4.03379,11.963-7.711,15.34711-13.21762,9.8728-16.0644,9.84273-33.49316,3.72463-50.99829-.49819-1.42562-2.547-2.30928-4.93081-4.347C700.65307,872.7733,701.46273,876.60324,702.2724,880.43318ZM842.12006,728.30331c8.48172,2.99712,16.99973,5.85012,25.40138,9.01235,13.11762,4.937,29.682,1.98347,40.06064-7.90478-10.39176,4.24653-20.02126,3.36315-29.70273.43092-6.35251-1.924-12.83153-3.426-19.21488-5.25319C852.21049,722.741,846.93674,725.1824,842.12006,728.30331ZM824.649,433.64029c-4.36114,7.96125-3.66029,15.46529.596,22.88426,3.91134,6.81774,7.70366,13.70386,11.54842,20.55985l2.26509-.95363q-4.6499-30.71913-9.29985-61.43826l-1.61241.237c-1.32611,11.1193-3.26378,22.32223,6.505,31.92348q-1.22856.34931-2.457.69862C829.71819,442.98654,827.24219,438.42151,824.649,433.64029ZM613.19372,311.06744q9.54326,3.83751,19.08649,7.675-.0687.42672-.13727.85344l-6.35133-.31993-.27734,1.73031c8.39087,1.34444,16.78175,2.68887,25.391,4.06831h-13.6447a7.7896,7.7896,0,0,0,4.94178,2.65176,40.24837,40.24837,0,0,0,5.53327.05651l-.01623.16822H634.4425c10.12686,5.01081,21.33891,2.31019,31.99655,3.59175q-.05034.79172-.10077,1.58343H644.14089c10.33924,4.80356,20.72414,4.1246,32.37467,1.77665C656.54584,321.42518,635.03894,315.6703,613.19372,311.06744Zm164.60938,190.419c12.53264,22.39366,10.40574,48.84272,20.62617,71.89006-3.1051-17.2891-6.2102-34.57821-9.20229-51.238,8.84508,16.27286,4.83486,36.48343,12.969,53.6073,1.29317-20.50541-.5419-36.17847-4.64849-43.38946,1.43191,11.54158,2.85327,22.99818,4.2747,34.45486C796.90714,543.87512,797.39743,519.14372,777.8031,501.48645Zm14.18408,283.012q-.08854,1.06522-.17714,2.13053c8.97879.8782,18.15053.902,26.88246,2.87342,8.85606,1.99955,17.27778,5.92278,25.44313,8.84375-16.25335-20.85673-45.82566-28.47186-57.86151-16.77049,13.09874.75959,25.76873,1.49436,38.43872,2.22907l-.13994.69372ZM897.774,397.28263a65.05728,65.05728,0,0,0,.66785-34.557c-12.28376,6.64724-17.34883,23.7611-11.11073,34.64371q-.28217-5.33907-.56441-10.67809l.76155-.16364,3.6112,14.79041.48406-.2665V381.71468l.33833-.039q1.05411,7.88335,2.10816,15.76663.59036-.03744,1.18079-.07486.45453-3.78768.90911-7.57533l.70876.05821Q897.32127,393.56644,897.774,397.28263ZM808.92943,836.9738c-2.31726-8.26759-4.23814-15.36746-6.30657-22.42419-1.704-5.81383-3.06245-11.81766-5.58816-17.26729-1.41689-3.057-4.89346-5.15927-7.442-7.69177.3312,9.77867.94848,18.54375,3.45238,26.732C795.5669,824.5692,800.3712,831.91362,808.92943,836.9738ZM735.483,505.53266c4.14121,8.43832,18.23808,15.76659,28.83753,14.93161-9.45509-14.14967-22.45173-24.13258-35.51173-35.08124.8803,9.47321,10.84827,9.36891,14.93682,16.4293-4.71611-2.58173-8.45493-4.62849-12.19382-6.67521a15.69333,15.69333,0,0,0,5.26857,5.37788c2.117,1.40283,4.399,2.55638,6.60888,3.81893q-.204.439-.40812.878-4.96658-2.30187-9.93322-4.60374-.23507.44928-.47.89855,5.22525,3.06281,10.45064,6.12555l-.24832.54075ZM511.36712,794.75759c-8.07458-11.51123-11.58221-14.33276-24.987-21.35787-2.99191-1.56794-5.4213-4.20918-8.10968-6.35629q-.32376.35141-.64753.70267c3.39525,4.73409,6.79049,9.46811,10.49019,14.62668-2.84083-1.46171-5.48127-2.82027-8.74966-4.50192C489.41,792.54292,494.33878,795.07123,511.36712,794.75759Zm441.604-341.05691c-29.85182-1.84416-53.73387,11.316-60.45129,32.43076l14.77528-16.3937q.39432.35985.78848.7197-3.32944,4.36189-6.66657,8.73375c7.84506-6.1937,15.46886-12.21267,23.09259-18.23165q.37584.40317.75162.80628l-.99282,2.32882c4.486-1.62482,8.91159-3.22807,13.33742-4.83083C942.22841,457.58979,946.85131,455.91639,952.97116,453.70068ZM848.04683,810.032c-2.61635-12.5044-29.99218-23.122-46.6119-18.90586C814.75864,802.98832,833.33113,800.36512,848.04683,810.032ZM641.828,337.51548c6.59538,9.63892,30.09966,12.28722,48.49607,7.15383-7.00386-4.64986-13.15168-8.8075-22.52622-7.0769C659.28792,339.16332,650.21,337.65738,641.828,337.51548ZM898.02615,260.6228q-.3897-.23371-.77932-.46739c-11.95487,11.51217-23.90974,23.0243-36.21364,34.8726,12.0062.35724,27.77486-8.89124,29.58056-17.11351l-3.12119,1.04393ZM523.93371,807.35827c-7.29994-8.82788-9.5423-9.3381-20.03913-11.183-6.318-1.11045-12.30991-4.40464-18.2449-7.15638-1.67762-.77771-2.63809-3.10209-3.92749-4.71709C488.25446,805.75845,505.74955,806.93358,523.93371,807.35827Zm181.77667,62.226c5.854,17.00917,6.57126,33.75813-1.54878,50.31981,3.4063-3.42126,7.30379-6.5807,8.75613-10.61945,4.16967-11.5948,6.07887-23.51428,1.38577-35.68377C712.74934,869.57078,711.04769,867.29731,705.71038,869.58428Zm-216.65849-68.636c12.45435,16.63385,24.01827,19.81056,44.71577,14.04176-5.50106-2.61935-11.15205-5.70634-17.0012-6.1439C506.88013,808.10682,497.55347,806.60371,489.05189,800.94828Zm93.49286-573.95821q-.334,1.09167-.66785,2.18334L597.733,234.6141q-.15107.55993-.30218,1.1199l-6.87931-.83808q-.13657.547-.27322,1.09394,4.33908,1.44342,8.6783,2.88685-.31638.72275-.63281,1.4455c1.73829.12574,3.475.32529,5.21521.36076,2.94643.06007,5.89509.01649,8.84278.01649l.05643.573L598.297,243.39848c11.1073,4.0474,21.113,7.51663,33.82415,2.74041C614.605,239.37329,598.57488,233.18167,582.54475,226.99007ZM791.524,574.94158l.76421-.72316c-2.429-2.74747-4.43163-6.11076-7.35945-8.13773-14.10212-9.76321-28.45376-19.166-43.38582-29.14362,5.481,8.67179,11.98983,14.76814,21.16737,17.997,2.6274.92429,4.74905,3.28623,7.1026,4.989q-.44393.68655-.88792,1.37318-1.87473-.28774-3.74959-.57547l-.21441.80708Q778.24248,568.23472,791.524,574.94158ZM666.18226,694.51587c2.30453-1.79073,4.80514-4.65849,7.94318-5.857,2.20117-.84065,6.0481-.23973,7.69429,1.29233,1.19534,1.1124.935,5.53809-.348,7.18078-2.29823,2.94279-5.85551,4.90228-9.161,7.48743,2.333.13861,5.60277,1.36989,7.308.24008a90.0156,90.0156,0,0,0,14.32884-11.84214c2.02172-2.05382,1.45227-5.14312-2.27208-5.93992-4.05554-.86771-8.12926-2.15046-12.21844-2.24543A13.87481,13.87481,0,0,0,666.18226,694.51587ZM873.734,387.085c-3.57266,8.7191.22,24.31331,6.7593,30.1184-2.23375-7.1292-4.33771-13.84417-6.44167-20.55918l.54889-.17738q5.646,12.98478,11.292,25.96958.84474-.387,1.68934-.774C888.36874,408.38829,878.95056,399.297,873.734,387.085ZM658.64406,676.01555c-9.83741,2.68425-16.32965,6.686-17.66429,16.61658-1.2724,9.4681,1.66108,16.98141,9.08747,23.40749C640.88152,700.55355,646.56359,688.24672,658.64406,676.01555Zm170.061,140.07312c7.565,21.54088,9.59146,23.65484,29.45161,31.17206C847.824,836.32448,838.26459,826.20658,828.70509,816.08867Zm-395.4218-7.87807c-2.912-1.54731-5.76264-4.27373-8.74707-4.429-10.51935-.54749-21.08461-.21294-31.75019-.21294A67.06745,67.06745,0,0,0,433.28329,808.2106ZM652.78254,670.77712q.51808.93872,1.036,1.87738c3.44008-1.407,6.86714-2.8474,10.32575-4.20729,1.74843-.6875,4.07652-.72841,5.23319-1.934,3.13825-3.27119,2.94565-3.456,6.74923-1.82382-.64547-1.24694-1.13737-2.19745-1.04086-2.011q7.77625-1.23789,15.60558-2.48411.03252-1.2597.065-2.51942c-3.55679-.36148-7.28952-1.57234-10.62834-.88114a53.72551,53.72551,0,0,0-13.77232,5.25424C661.61021,664.53573,657.28886,667.83279,652.78254,670.77712Zm140.307-472.24985c5.42655-4.30141,10.43567-8.02642,15.09612-12.146a5.47424,5.47424,0,0,0,1.29975-4.8836c-.44211-1.13691-2.89845-2.17884-4.39639-2.09162-5.12094.29821-9.15641,2.1798-9.81223,8.21749C794.9,191.09289,793.92078,194.4968,793.08958,198.52727ZM906.44241,423.62148q.53025.54357,1.06058,1.08722,4.81227-4.44707,9.6244-8.89414.94879,1.00619,1.89766,2.01235-7.6125,6.43755-15.22494,12.875c15.31376-5.7668,19.02425-20.049,24.98991-32.69136-3.9796,4.13338-7.59695,8.53406-11.29017,12.87024C913.85389,415.16168,910.13137,419.37726,906.44241,423.62148ZM694.41727,101.50678c-11.90669,3.58635-13.6156,14.96647-5.775,24.07051C690.41593,118.18468,692.31394,110.27368,694.41727,101.50678Zm92.621,707.39076c-3.45273,11.29779.77463,19.10285,13.40518,24.76556C796.20412,825.83111,791.58465,817.29688,787.03826,808.89754Zm-189.696,111.26453c8.77494-16.58105,5.50858-35.41544,10.00727-52.798C600.38653,884.25816,603.69282,903.16367,597.34227,920.16207Zm272.8551-178.92073c-13.14762-9.1367-26.00594-11.76339-30.55925-6.90105C849.28742,736.51928,859.09923,738.73507,870.19737,741.24134ZM718.48443,898.5456c4.863-7.02484,3.3558-29.05894-2.72566-29.64238C716.7032,879.17372,717.65672,889.54408,718.48443,898.5456ZM705.96752,660.63494q4.5883,11.05828,9.26208,22.3223C719.22192,673.86522,716.52075,667.43761,705.96752,660.63494Zm212.83256,34.92893q.28764.92382.57519,1.8478l24.18954-6.80784q-.08161-1.01457-.16329-2.029c-1.76543-.33826-3.79939-1.41514-5.25019-.88785C931.61057,690.0641,925.23512,692.89591,918.80008,695.56387ZM573.46715,146.70741q.81956-.29141,1.63926-.5828c-3.39336-7.507-3.16839-16.3-8.17954-23.23208q-.86562.30777-1.73109.61555Q569.33146,135.10773,573.46715,146.70741Zm-50.827,673.205q-.06493.58355-.1299,1.16708,9.52752.58333,19.05506,1.1666.04479-1.16688.08965-2.33368Zm356.16415-398.456c-2.90307-6.429-5.80614-12.858-9.13034-20.21959C868.95769,410.49158,873.48541,416.16212,878.80434,421.45643ZM489.37,773.89113q.7905-.92782,1.581-1.85571-7.202-6.14657-14.404-12.29312l-1.47423,1.72723Q482.22138,767.6803,489.37,773.89113Z" transform="translate(-31.77468 -15.65717)" style="fill:#fff"/><path d="M487.73238,476.95653q-7.87369-18.01356-15.75057-36.02566c-2.98468-6.81064-6.45081-13.45158-8.87519-20.45457-2.33365-6.74066-4.72671-13.78064-5.15564-20.8074-2.26379-37.08281-12.77006-70.98829-37.788-99.16889-21.10367-23.77159-48.18806-36.65816-79.68338-39.137-18.22224-1.43416-36.61011-.78439-54.9241-1.01625-3.51155-.04448-5.87729.49309-5.86132,5.37669q.40569,124.00119.41445,248.00377.01931,15.46417.15826,30.9281c.022,2.44432-.27522,5.20277,3.57294,5.14445,25.32313-.38337,50.7487,2.21207,75.82773-4.01463,29.64857-7.36121,53.25428-23.16147,70.47059-48.4424,1.17912-1.73147,2.457-3.40126,3.77753-5.02776a14.58239,14.58239,0,0,1,2.37509-1.75962c4.3417,9.85986,8.78046,19.32566,12.52407,29.0588.60953,1.58472-1.31167,4.94273-2.98314,6.48234-18.718,17.242-40.918,27.68881-65.66695,33.01207-25.784,5.54592-51.94555,5.34934-78.11051,5.23053-28.63634-.13007-57.27333-.12972-85.90954-.28308a75.4469,75.4469,0,0,1-13.10286-1.04045c-1.5122-.27623-2.67079-2.48851-3.99084-3.81686,1.452-1.17723,2.74116-2.91824,4.39516-3.39588,2.32042-.67,4.95432-.15566,7.38076-.57358,14.09133-2.42753,21.41937-10.01594,21.675-24.43754.70713-39.88816,1.0017-79.78555,1.18541-119.68055.17318-37.611.0076-75.22356-.03686-112.83545-.00564-4.771.1038-9.56779-.329-14.308-1.40356-15.37232-9.56538-24.28681-24.711-27.34041-2.24424-.45246-4.68775-.42816-6.697-1.36118-1.42354-.6611-2.27059-2.56362-3.375-3.912,1.29245-.91841,2.47162-2.16806,3.91-2.66,1.37588-.47053,3.02118-.17752,4.5481-.17857,44.10363-.03042,88.20761-.17626,132.31068-.033,23.54291.07647,46.835,1.94728,69.40228,9.72748,44.10951,15.207,72.76882,45.627,88.22349,88.98147,11.883,33.33515,11.04782,67.08566,1.61258,100.83641-2.705,9.67594-5.87376,19.22223-8.82991,28.82795Z" transform="translate(-31.77468 -15.65717)" style="fill:#fff"/><path d="M425.17235,547.60618c.32277,3.17293.7447,5.539.77718,7.91023.39676,28.98181.56659,57.96809,1.18758,86.94472a216.03368,216.03368,0,0,0,2.47645,28.454c2.34414,15.091,10.25788,21.77361,25.43872,22.697,1.33206.08105,2.88489-.22574,3.94722.356,2.05417,1.12506,5.18431,2.5446,5.44561,4.21988.56564,3.627-2.77059,3.73644-5.57593,3.72162q-15.73071-.08319-31.46175-.10042-19.45216-.0321-38.90429-.03518c-1.14387-.00133-2.54089.35735-3.37972-.16224a45.71812,45.71812,0,0,1-5.08242-4.15212c1.70312-1.28037,3.391-3.63784,5.11186-3.66217,9.52055-.13441,16.66581-3.97065,20.7766-12.55167a41.499,41.499,0,0,0,3.9954-12.41481A222.296,222.296,0,0,0,411.7693,643.187c.27193-28.40879.27046-56.82114.17252-85.23139-.01094-3.17168.68988-4.96549,3.72781-6.054C418.6492,550.834,421.4644,549.30775,425.17235,547.60618Z" transform="translate(-31.77468 -15.65717)" style="fill:#fff"/><path d="M875.9612,606.57925c11.4664-1.39164,23.09693-2.0106,34.35073-4.40247,10.27344-2.18348,20.13875-6.28734,30.18393-9.54482-1.25639,1.29723-2.27529,3.19671-3.80533,3.80022-19.50768,7.69338-39.89161,10.27092-60.7345,9.98658C875.9519,606.41687,875.9612,606.57925,875.9612,606.57925Z" transform="translate(-31.77468 -15.65717)" style="fill:#fff"/><path d="M671.42678,791.71864c.12427.89526.66477,2.02857.30952,2.6495-4.413,7.71471-8.95621,15.35487-13.466,23.01426q-.63064-.35717-1.26115-.71421,7.25576-12.45687,14.48821-24.93067A.16056.16056,0,0,0,671.42678,791.71864Z" transform="translate(-31.77468 -15.65717)" style="fill:#fff"/><path d="M745.17639,746.5923c-.338-10.77086-1.04883-21.45571-7.6061-30.79262,8.87571,8.80446,8.95459,19.63706,7.60764,30.79968Z" transform="translate(-31.77468 -15.65717)" style="fill:#fff"/><path d="M710.58062,773.84721c-8.267-.03951-12.29523-6.499-17.29764-11.48381q8.57505,5.82243,17.16358,11.62983C710.46,773.9784,710.58062,773.84721,710.58062,773.84721Z" transform="translate(-31.77468 -15.65717)" style="fill:#fff"/><path d="M742.32689,687.33264c-1.27681-3.08293-2.53621-6.1732-3.8347-9.247-1.82507-4.32058-3.679-8.62892-5.52053-12.94251q.93222-.33725,1.8643-.67463,3.67026,11.50252,7.33925,23.00944C742.17416,687.4823,742.32689,687.33264,742.32689,687.33264Z" transform="translate(-31.77468 -15.65717)" style="fill:#fff"/><path d="M867.18,701.04965q5.84856-9.3237,11.697-18.64739l1.71905,1.16079q-6.76692,8.69043-13.53378,17.38093Z" transform="translate(-31.77468 -15.65717)" style="fill:#fff"/><path d="M467.34335,895.6405l8.37689-20.58337q.68987.28017,1.37965.56029-4.39347,10.20588-8.78694,20.41169Q467.82812,895.83485,467.34335,895.6405Z" transform="translate(-31.77468 -15.65717)" style="fill:#fff"/><path d="M871.30362,327.05428c-13.23588,5.74208-26.87715,10.01843-41.44186,11.13744a29.33194,29.33194,0,0,1,3.32468-1.38629c11.2943-3.205,22.59279-6.39653,33.916-9.49733a17.78787,17.78787,0,0,1,4.234-.18326C871.359,327.15212,871.30362,327.05428,871.30362,327.05428Z" transform="translate(-31.77468 -15.65717)" style="fill:#fff"/><path d="M877.40571,312.08211q-12.3396,4.64517-24.67934,9.29034l-.38686-1.04342q12.2903-4.77933,24.58059-9.5587Q877.16283,311.42621,877.40571,312.08211Z" transform="translate(-31.77468 -15.65717)" style="fill:#fff"/><path d="M937.638,474.94827q-11.35934,2.4376-22.71874,4.87521l-.218-.99873,22.46726-4.99721Q937.40324,474.38791,937.638,474.94827Z" transform="translate(-31.77468 -15.65717)" style="fill:#fff"/><path d="M409.86905,891.50838q13.78891-2.57679,27.57789-5.15353.0716.37311.14312.74631-13.78047,2.86769-27.56094,5.73529Z" transform="translate(-31.77468 -15.65717)" style="fill:#fff"/><path d="M330.7724,861.4425q11.78784-5.2154,23.57561-10.43071Q342.56023,856.22708,330.7724,861.4425Z" transform="translate(-31.77468 -15.65717)" style="fill:#fff"/></svg>